<?xml version="1.0" encoding="utf-8"?>
<!-- Generator: Adobe Illustrator 14.0.0, SVG Export Plug-In . SVG Version: 6.00 Build 43363)  -->
<!DOCTYPE svg PUBLIC "-//W3C//DTD SVG 1.1//EN" "http://www.w3.org/Graphics/SVG/1.1/DTD/svg11.dtd">
<svg version="1.1" id="Layer_3" xmlns="http://www.w3.org/2000/svg" xmlns:xlink="http://www.w3.org/1999/xlink" x="0px" y="0px"
	 width="327.333px" height="200.909px" viewBox="0 0 327.333 200.909" enable-background="new 0 0 327.333 200.909"
	 xml:space="preserve">
<g fill="#FF0000" stroke="#000000" stroke-width="2.5">
	<polygon opacity="0.3" points="-73.222,120.586 -73.222,36.578 5.645,8.29 5.645,77.725"/>
	<polygon opacity="0.3" points="-49.82,126.372 -49.82,42.364 29.047,14.076 29.047,83.511"/>
	<polygon opacity="0.3" points="-26.418,132.158 -26.418,48.15 52.449,19.862 52.449,89.297"/>
	<polygon opacity="0.3" points="-3.016,137.944 -3.016,53.937 75.851,25.648 75.851,95.083"/>
	<polygon opacity="0.3" points="20.386,143.73 20.386,59.723 99.253,31.435 99.253,100.869"/>
	<polygon opacity="0.3" points="43.789,149.517 43.789,65.509 122.655,37.221 122.655,106.655"/>
	<polygon opacity="0.3" points="67.191,155.303 67.191,71.295 146.058,43.007 146.058,112.441"/>
	<polygon opacity="0.3" points="90.593,161.089 90.593,77.081 169.46,48.793 169.46,118.228"/>
	<polygon opacity="0.3" points="113.995,166.875 113.995,82.867 192.861,54.579 192.861,124.014"/>
	<polygon opacity="0.3" points="137.397,172.661 137.397,88.653 216.262,60.365 216.262,129.8"/>
	<polygon opacity="0.3" points="160.799,178.447 160.799,94.439 239.663,66.152 239.663,135.586"/>
	<polygon opacity="0.3" points="184.201,184.233 184.201,100.226 263.063,71.938 263.063,141.372"/>
	<polygon opacity="0.3" points="207.603,190.02 207.603,106.013 286.464,77.725 286.464,147.158"/>
</g>
<g>
	<polyline fill="none" stroke="#000000" stroke-width="1.25" points="314.298,143.248 295.897,127.657 292.682,131.729 
		270.394,126.158 260.615,133.203"/>
	<polygon points="279.5,144.589 314.752,142.66 318.235,149.517 278.054,152.088 279.179,146.089 258.284,138.374 260.321,132.695 
		283.144,140.519"/>
</g>
</svg>
