<?xml version="1.0" encoding="UTF-8" standalone="no"?>
<!DOCTYPE svg PUBLIC "-//W3C//DTD SVG 1.1//EN" "http://www.w3.org/Graphics/SVG/1.1/DTD/svg11.dtd">
<svg version="1.1" xmlns="http://www.w3.org/2000/svg" xmlns:xlink="http://www.w3.org/1999/xlink" preserveAspectRatio="xMidYMid meet" viewBox="0 0 640 640" width="640" height="640"><defs><path d="M556.62 316.13C556.62 361.44 450.96 398.17 320.63 398.17C190.29 398.17 84.63 361.44 84.63 316.13C84.63 270.82 190.29 234.08 320.63 234.08C450.96 234.08 556.62 270.82 556.62 316.13Z" id="aRbWQHH0F"></path><path d="M319.28 316.13L250.86 249.24" id="bchxePC2B"></path><path d="M251.68 250.06L250.25 262.43L240.48 239.11L264.03 248.35L264.03 248.35L251.68 250.06Z" id="bxy7IStqD"></path><path d="M242.16 240.76L250.88 249.28L260.52 247.93L260.52 247.93L242.16 240.76Z" id="a8AogbOWf"></path><path d="M242.16 240.76L250.88 249.28L249.77 258.94L249.77 258.94L242.16 240.76Z" id="a5jUUDd9I"></path><path d="M318.48 316L526.51 290.27" id="d7qp20OBBS"></path><path d="M525.36 290.41L516.58 281.57L540.91 288.5L519.01 301.13L519.01 301.13L525.36 290.41Z" id="b1PAmZykEP"></path><path d="M538.57 288.78L526.47 290.29L521.5 298.64L521.5 298.64L538.57 288.78Z" id="cgy87cYJ"></path><path d="M538.57 288.78L526.47 290.29L519.62 283.38L519.62 283.38L538.57 288.78Z" id="b5PJjTSIb"></path><path d="M319.8 315.86L150.55 268.53" id="aeMscago2"></path><path d="M151.66 268.85L156.36 280.37L136.57 264.63L161.66 261.41L161.66 261.41L151.66 268.85Z" id="c2E8yCANN9"></path><path d="M138.85 265.25L150.58 268.55L158.4 262.73L158.4 262.73L138.85 265.25Z" id="d1lcRZEuij"></path><path d="M138.85 265.37L150.58 268.66L154.25 277.66L154.25 277.66L138.85 265.37Z" id="aofZT0nVk"></path><path d="M318.93 315.89L453.58 257.7" id="a5hyJEwcD"></path><path d="M452.52 258.17L441.6 252.14L466.89 251.94L449.42 270.23L449.42 270.23L452.52 258.17Z" id="i5Qb3rYhRj"></path><path d="M464.74 252.87L453.56 257.72L451.12 267.13L451.12 267.13L464.74 252.87Z" id="a1TJFoCvtR"></path><path d="M464.74 252.87L453.56 257.72L445.02 253.02L445.02 253.02L464.74 252.87Z" id="mGt5cPdC3"></path><path d="M360.9 297.77C370.3 300.38 377.8 303.9 382.11 308.13" id="b53iXOSJC5"></path><path d="M267.34 301.18C276.75 297.47 286.62 295.06 296.68 294.03" id="e3tjs3D39l"></path><path d="M324.71 639.98L312.81 56.9" id="b52J1qThps"></path><path d="M312.84 58.06L303.14 65.88L312.52 42.41L322.83 65.49L322.83 65.49L312.84 58.06Z" id="g1oQzBY2p3"></path><path d="M312.56 44.75L312.81 56.94L320.63 62.75L320.63 62.75L312.56 44.75Z" id="i1tjqEJ2rI"></path><path d="M312.56 44.75L312.81 56.94L305.24 63.06L305.24 63.06L312.56 44.75Z" id="bjQVJHasn"></path><path d="M415.35 257.7C416.71 262.76 417.47 265.57 417.62 266.13C418 267.5 418.32 268.71 418.55 270C418.56 270 418.62 270 418.62 270C418.88 268.71 419.22 267.52 419.62 266.13C419.77 265.57 420.52 262.76 421.86 257.7L424.06 257.7L419.51 272.74L417.52 272.74L413.13 257.74L415.35 257.7Z" id="bJsez1Viu"></path><path d="M426.82 277.26L426.82 267.05L426.82 267.05L425.1 268.14L424.84 266.54L427.08 265.17L428.53 265.17L428.53 277.26L426.82 277.26Z" id="b2NyUQkdG"></path><path d="M506.47 282.4C505.92 284.92 505.14 287.36 504.15 289.67C504.01 289.69 502.9 289.83 502.76 289.85C503.41 287.5 503.9 285.09 504.23 282.64C504.68 282.59 506.02 282.45 506.47 282.4Z" id="aylx0k9qS"></path><path d="M504.82 308.13L504.82 298.03L504.82 298.03L503.04 299.11L502.76 297.52L505.1 296.17L506.61 296.17L506.61 308.13L504.82 308.13Z" id="a1clUTjaUa"></path><path d="M491.87 288.83C493.29 293.83 494.07 296.6 494.23 297.16C494.62 298.51 494.95 299.72 495.2 300.99C495.21 300.99 495.27 300.99 495.27 300.99C495.54 299.72 495.89 298.54 496.31 297.16C496.46 296.6 497.23 293.83 498.61 288.83L500.9 288.83L496.18 303.66L494.12 303.66L489.54 288.83L491.87 288.83Z" id="djaNEFpt2"></path><path d="M262.69 253.05C264.01 257.63 264.75 260.17 264.9 260.68C265.25 261.83 265.56 263 265.81 264.19C265.82 264.19 265.87 264.19 265.87 264.19C266.12 263.02 266.45 261.95 266.84 260.68C266.99 260.17 267.72 257.63 269.04 253.05L271.18 253.05L266.75 266.63L264.81 266.63L260.52 253.05L262.69 253.05Z" id="j17XHe7iqd"></path><path d="M276.39 247.58C275.86 249.88 275.13 252.11 274.19 254.22C274.06 254.24 273.02 254.4 272.89 254.42C273.5 252.27 273.97 250.06 274.27 247.82C274.69 247.77 275.96 247.62 276.39 247.58Z" id="e1oqr26yRf"></path><path d="M272.61 269.89C273.49 268.89 273.98 268.34 274.07 268.23C276.02 266.12 276.99 264.8 276.99 263.37C277.02 262.32 276.34 261.44 275.47 261.4C275.38 261.39 275.3 261.4 275.21 261.41C274.51 261.46 273.83 261.76 273.27 262.27C273.22 262.15 272.82 261.14 272.77 261.01C273.58 260.24 274.59 259.83 275.62 259.84C277.81 259.84 278.72 261.5 278.72 263.02C278.72 265.13 277.4 266.67 275.62 268.55C275.57 268.6 275.33 268.87 274.9 269.34L274.9 269.34L278.88 269.34L278.88 270.89L272.59 270.89L272.61 269.89Z" id="b9Ga6x4S3"></path><path d="M165.75 268.62C167.17 273.27 167.96 275.86 168.12 276.38C168.5 277.54 168.83 278.73 169.1 279.94C169.1 279.94 169.15 279.94 169.16 279.94C169.43 278.75 169.79 277.66 170.2 276.38C170.36 275.86 171.14 273.27 172.55 268.62L174.86 268.62L170.11 282.45L168.02 282.45L163.42 268.64L165.75 268.62Z" id="a3RjE69n1e"></path><path d="M175.61 285.73C176.55 284.72 177.08 284.15 177.18 284.04C179.27 281.9 180.31 280.57 180.31 279.11C180.35 278.04 179.62 277.14 178.68 277.1C178.59 277.1 178.5 277.1 178.41 277.11C177.66 277.17 176.93 277.48 176.33 278.01C176.28 277.88 175.86 276.85 175.81 276.72C176.68 275.94 177.75 275.52 178.86 275.53C181.21 275.53 182.19 277.21 182.19 278.75C182.19 280.89 180.76 282.46 178.86 284.37C178.81 284.43 178.55 284.69 178.08 285.17L178.08 285.23L182.37 285.23L182.37 286.8L175.61 286.8L175.61 285.73Z" id="bbgn4LKCt7"></path><path d="M316.22 35.95L315.92 33.32C315.85 33.32 315.8 33.32 315.8 33.32C314.3 35.32 311.92 36.47 309.42 36.41C306.17 36.63 303.36 34.17 303.14 30.92C303.13 30.75 303.12 30.58 303.13 30.42C303.13 25.39 307.6 22.64 315.65 22.69C315.65 22.65 315.65 22.3 315.65 22.26C315.95 19.91 314.29 17.76 311.94 17.46C311.6 17.41 311.26 17.41 310.93 17.45C309.03 17.46 307.18 17.99 305.56 18.99C305.47 18.74 304.79 16.75 304.7 16.5C306.77 15.28 309.14 14.66 311.54 14.71C317.89 14.71 319.43 19.04 319.43 23.21C319.43 23.98 319.43 30.18 319.43 30.96C319.4 32.63 319.52 34.3 319.79 35.95C319.31 35.95 318.12 35.95 316.22 35.95ZM315.65 25.34C311.54 25.25 306.85 25.98 306.85 30.03C306.71 31.87 308.1 33.47 309.94 33.6C310.1 33.62 310.27 33.62 310.43 33.6C312.68 33.66 314.7 32.26 315.44 30.13C315.58 29.75 315.65 29.34 315.65 28.93C315.65 28.21 315.65 26.06 315.65 25.34Z" id="c6hMV6zZ4e"></path><path d="M324.62 639.18L532.45 301.85" id="a1t1I97sm8"></path><path d="M531.86 302.94L519.48 304.26L540.07 289.61L536.24 314.61L536.24 314.61L531.86 302.94Z" id="bqdrNjTsh"></path><path d="M538.84 291.61L532.45 301.99L535.87 311.1L535.87 311.1L538.84 291.61Z" id="c2LGXhBS"></path><path d="M538.84 291.61L532.45 301.99L522.77 303.03L522.77 303.03L538.84 291.61Z" id="b29B0o6lLe"></path><path d="M376.76 448.36C378.24 454.48 379.07 457.89 379.23 458.57C379.63 460.1 379.97 461.67 380.25 463.26C380.26 463.26 380.32 463.26 380.33 463.26C380.62 461.7 380.98 460.26 381.41 458.57C381.58 457.89 382.39 454.48 383.85 448.36L386.25 448.36L381.3 466.54L379.14 466.54L374.35 448.36L376.76 448.36Z" id="binc4bb5D"></path><path d="M383.45 290.51C386.31 290.51 387.73 293.34 387.73 297.52C387.73 301.91 386.34 304.77 383.39 304.77C380.68 304.77 379.01 302.34 379.01 297.52C379.01 293.56 380.59 290.51 383.45 290.51ZM386.08 296.79C386.08 294.02 385.2 291.78 383.36 291.78C381.51 291.78 380.66 294.18 380.66 296.79C381.74 296.79 385 296.79 386.08 296.79ZM380.66 298.07C380.66 301.54 381.83 303.51 383.44 303.51C385.05 303.51 386.08 301.25 386.08 298.07C385 298.07 381.74 298.07 380.66 298.07Z" id="c1ukICTocf"></path><path d="M272.58 282.68C275.23 282.68 276.54 285.52 276.54 289.73C276.54 294.13 275.25 296.94 272.52 296.94C270.01 297 268.47 294.55 268.47 289.73C268.47 285.74 269.93 282.68 272.58 282.68ZM275.01 288.98C275.01 286.21 274.2 283.96 272.49 283.96C270.78 283.96 269.99 286.36 269.99 288.98C271 288.98 274.01 288.98 275.01 288.98ZM269.99 290.27C269.99 293.76 271.07 295.73 272.57 295.73C274.06 295.73 275.01 293.46 275.01 290.27C274.01 290.27 271 290.27 269.99 290.27Z" id="a2CWF2Gq6"></path><path d="M460.48 265.25L324.72 637.08" id="e13fnNnvLb"></path><path d="M460.09 266.45L466.73 276.99L465.47 251.74L448.23 270.25L448.23 270.25L460.09 266.45Z" id="f3Shg9mIa9"></path><path d="M464.67 253.95L460.48 265.4L451.21 268.35L451.21 268.35L464.67 253.95Z" id="anwrxNvdC"></path><path d="M464.67 253.95L460.48 265.4L465.65 273.63L465.65 273.63L464.67 253.95Z" id="j3ivLjuD0e"></path><path d="M455.69 451.04C457.19 456.6 458.03 459.69 458.19 460.3C458.61 461.81 458.95 463.14 459.22 464.56C459.23 464.56 459.3 464.56 459.3 464.56C459.59 463.14 459.96 461.84 460.4 460.3C460.57 459.69 461.4 456.6 462.89 451.04L465.32 451.04L460.29 467.52L458.09 467.52L453.24 451.04L455.69 451.04Z" id="ep15yVnP"></path><path d="M470.31 444.21C469.71 447.01 468.88 449.72 467.82 452.28C467.67 452.3 466.5 452.48 466.35 452.5C467.04 449.9 467.57 447.22 467.91 444.51C468.39 444.45 469.83 444.27 470.31 444.21Z" id="cPcvGNNeL"></path><path d="M322.81 566.08C323.6 566.08 324.05 566.08 324.13 566.08C337.71 566.06 351.02 569.84 362.55 577" id="dF6sl4BpR"></path><path d="M341.7 551.99C341.56 553.22 341.34 557.26 341.34 560.38C341.34 561.77 341.73 562.35 342.68 562.4C342.66 562.56 342.5 563.78 342.48 563.93C342.21 564.01 341.93 564.04 341.65 564.03C340.48 564.03 339.47 563.35 339.32 561.55C339.31 561.55 339.25 561.55 339.24 561.55C338.35 563.08 336.56 564.04 334.59 564.03C331.39 564.03 329.06 561.7 329.06 558.14C329.06 554.29 331.97 551.74 335.09 551.74C336.91 551.69 338.57 552.63 339.24 554.1C339.25 554.1 339.35 554.1 339.36 554.1C339.39 553.4 339.48 552.7 339.61 552.02C340.03 552.01 341.29 551.99 341.7 551.99ZM338.86 559.36C338.99 558.81 339.04 558.26 339.02 557.7C339.04 557.28 339 556.85 338.92 556.44C338.73 554.83 337.27 553.56 335.43 553.4C333.11 553.4 331.58 555.36 331.58 558.03C331.61 560.26 332.92 562.34 335.26 562.34C336.96 562.34 338.44 560.91 338.86 559.36Z" id="diDhR7Gef"></path></defs><g><g><g><use xlink:href="#aRbWQHH0F" opacity="1" fill="#000000" fill-opacity="0"></use><g><use xlink:href="#aRbWQHH0F" opacity="1" fill-opacity="0" stroke="#000000" stroke-width="1" stroke-opacity="1"></use></g></g><g><use xlink:href="#bchxePC2B" opacity="0.5" fill="#000000" fill-opacity="0"></use><g><use xlink:href="#bchxePC2B" opacity="0.5" fill-opacity="0" stroke="#000000" stroke-width="1" stroke-opacity="1"></use></g></g><g><use xlink:href="#bxy7IStqD" opacity="1" fill="#000000" fill-opacity="1"></use><g><use xlink:href="#bxy7IStqD" opacity="1" fill-opacity="0" stroke="#000000" stroke-width="1" stroke-opacity="0"></use></g></g><g><use xlink:href="#a8AogbOWf" opacity="1" fill="#a6a6a6" fill-opacity="1"></use><g><use xlink:href="#a8AogbOWf" opacity="1" fill-opacity="0" stroke="#000000" stroke-width="1" stroke-opacity="0"></use></g></g><g><use xlink:href="#a5jUUDd9I" opacity="1" fill="#666666" fill-opacity="1"></use><g><use xlink:href="#a5jUUDd9I" opacity="1" fill-opacity="0" stroke="#000000" stroke-width="1" stroke-opacity="0"></use></g></g><g><use xlink:href="#d7qp20OBBS" opacity="0.5" fill="#000000" fill-opacity="0"></use><g><use xlink:href="#d7qp20OBBS" opacity="0.5" fill-opacity="0" stroke="#000000" stroke-width="1" stroke-opacity="1"></use></g></g><g><use xlink:href="#b1PAmZykEP" opacity="1" fill="#000000" fill-opacity="1"></use><g><use xlink:href="#b1PAmZykEP" opacity="1" fill-opacity="0" stroke="#000000" stroke-width="1" stroke-opacity="0"></use></g></g><g><use xlink:href="#cgy87cYJ" opacity="1" fill="#a6a6a6" fill-opacity="1"></use><g><use xlink:href="#cgy87cYJ" opacity="1" fill-opacity="0" stroke="#000000" stroke-width="1" stroke-opacity="0"></use></g></g><g><use xlink:href="#b5PJjTSIb" opacity="1" fill="#666666" fill-opacity="1"></use><g><use xlink:href="#b5PJjTSIb" opacity="1" fill-opacity="0" stroke="#000000" stroke-width="1" stroke-opacity="0"></use></g></g><g><use xlink:href="#aeMscago2" opacity="1" fill="#000000" fill-opacity="0"></use><g><use xlink:href="#aeMscago2" opacity="1" fill-opacity="0" stroke="#000000" stroke-width="1" stroke-opacity="1"></use></g></g><g><use xlink:href="#c2E8yCANN9" opacity="1" fill="#000000" fill-opacity="1"></use><g><use xlink:href="#c2E8yCANN9" opacity="1" fill-opacity="0" stroke="#000000" stroke-width="1" stroke-opacity="0"></use></g></g><g><use xlink:href="#d1lcRZEuij" opacity="1" fill="#a6a6a6" fill-opacity="1"></use><g><use xlink:href="#d1lcRZEuij" opacity="1" fill-opacity="0" stroke="#000000" stroke-width="1" stroke-opacity="0"></use></g></g><g><use xlink:href="#aofZT0nVk" opacity="1" fill="#666666" fill-opacity="1"></use><g><use xlink:href="#aofZT0nVk" opacity="1" fill-opacity="0" stroke="#000000" stroke-width="1" stroke-opacity="0"></use></g></g><g><use xlink:href="#a5hyJEwcD" opacity="1" fill="#000000" fill-opacity="0"></use><g><use xlink:href="#a5hyJEwcD" opacity="1" fill-opacity="0" stroke="#000000" stroke-width="1" stroke-opacity="1"></use></g></g><g><use xlink:href="#i5Qb3rYhRj" opacity="1" fill="#000000" fill-opacity="1"></use><g><use xlink:href="#i5Qb3rYhRj" opacity="1" fill-opacity="0" stroke="#000000" stroke-width="1" stroke-opacity="0"></use></g></g><g><use xlink:href="#a1TJFoCvtR" opacity="1" fill="#a6a6a6" fill-opacity="1"></use><g><use xlink:href="#a1TJFoCvtR" opacity="1" fill-opacity="0" stroke="#000000" stroke-width="1" stroke-opacity="0"></use></g></g><g><use xlink:href="#mGt5cPdC3" opacity="1" fill="#666666" fill-opacity="1"></use><g><use xlink:href="#mGt5cPdC3" opacity="1" fill-opacity="0" stroke="#000000" stroke-width="1" stroke-opacity="0"></use></g></g><g><use xlink:href="#b53iXOSJC5" opacity="1" fill="#000000" fill-opacity="0"></use><g><use xlink:href="#b53iXOSJC5" opacity="1" fill-opacity="0" stroke="#000000" stroke-width="1" stroke-opacity="1"></use></g></g><g><use xlink:href="#e3tjs3D39l" opacity="1" fill="#000000" fill-opacity="0"></use><g><use xlink:href="#e3tjs3D39l" opacity="1" fill-opacity="0" stroke="#000000" stroke-width="1" stroke-opacity="1"></use></g></g><g><use xlink:href="#b52J1qThps" opacity="1" fill="#000000" fill-opacity="0"></use><g><use xlink:href="#b52J1qThps" opacity="1" fill-opacity="0" stroke="#000000" stroke-width="1" stroke-opacity="1"></use></g></g><g><use xlink:href="#g1oQzBY2p3" opacity="1" fill="#000000" fill-opacity="1"></use><g><use xlink:href="#g1oQzBY2p3" opacity="1" fill-opacity="0" stroke="#000000" stroke-width="1" stroke-opacity="0"></use></g></g><g><use xlink:href="#i1tjqEJ2rI" opacity="1" fill="#a6a6a6" fill-opacity="1"></use><g><use xlink:href="#i1tjqEJ2rI" opacity="1" fill-opacity="0" stroke="#000000" stroke-width="1" stroke-opacity="0"></use></g></g><g><use xlink:href="#bjQVJHasn" opacity="1" fill="#666666" fill-opacity="1"></use><g><use xlink:href="#bjQVJHasn" opacity="1" fill-opacity="0" stroke="#000000" stroke-width="1" stroke-opacity="0"></use></g></g><g><use xlink:href="#bJsez1Viu" opacity="1" fill="#000000" fill-opacity="1"></use><g><use xlink:href="#bJsez1Viu" opacity="1" fill-opacity="0" stroke="#000000" stroke-width="1" stroke-opacity="0"></use></g></g><g><use xlink:href="#b2NyUQkdG" opacity="1" fill="#000000" fill-opacity="1"></use><g><use xlink:href="#b2NyUQkdG" opacity="1" fill-opacity="0" stroke="#000000" stroke-width="1" stroke-opacity="0"></use></g></g><g><use xlink:href="#aylx0k9qS" opacity="0.7" fill="#000000" fill-opacity="1"></use><g><use xlink:href="#aylx0k9qS" opacity="0.7" fill-opacity="0" stroke="#000000" stroke-width="1" stroke-opacity="0"></use></g></g><g><use xlink:href="#a1clUTjaUa" opacity="0.68" fill="#000000" fill-opacity="1"></use><g><use xlink:href="#a1clUTjaUa" opacity="0.68" fill-opacity="0" stroke="#000000" stroke-width="1" stroke-opacity="0"></use></g></g><g><use xlink:href="#djaNEFpt2" opacity="0.71" fill="#000000" fill-opacity="1"></use><g><use xlink:href="#djaNEFpt2" opacity="0.71" fill-opacity="0" stroke="#000000" stroke-width="1" stroke-opacity="0"></use></g></g><g><use xlink:href="#j17XHe7iqd" opacity="0.7" fill="#000000" fill-opacity="1"></use><g><use xlink:href="#j17XHe7iqd" opacity="0.7" fill-opacity="0" stroke="#000000" stroke-width="1" stroke-opacity="0"></use></g></g><g><use xlink:href="#e1oqr26yRf" opacity="0.7" fill="#000000" fill-opacity="1"></use><g><use xlink:href="#e1oqr26yRf" opacity="0.7" fill-opacity="0" stroke="#000000" stroke-width="1" stroke-opacity="0"></use></g></g><g><use xlink:href="#b9Ga6x4S3" opacity="0.7" fill="#000000" fill-opacity="1"></use><g><use xlink:href="#b9Ga6x4S3" opacity="0.7" fill-opacity="0" stroke="#000000" stroke-width="1" stroke-opacity="0"></use></g></g><g><use xlink:href="#a3RjE69n1e" opacity="1" fill="#000000" fill-opacity="1"></use><g><use xlink:href="#a3RjE69n1e" opacity="1" fill-opacity="0" stroke="#000000" stroke-width="1" stroke-opacity="0"></use></g></g><g><use xlink:href="#bbgn4LKCt7" opacity="1" fill="#000000" fill-opacity="1"></use><g><use xlink:href="#bbgn4LKCt7" opacity="1" fill-opacity="0" stroke="#000000" stroke-width="1" stroke-opacity="0"></use></g></g><g><use xlink:href="#c6hMV6zZ4e" opacity="1" fill="#000000" fill-opacity="1"></use><g><use xlink:href="#c6hMV6zZ4e" opacity="1" fill-opacity="0" stroke="#000000" stroke-width="1" stroke-opacity="0"></use></g></g><g><use xlink:href="#a1t1I97sm8" opacity="0.49" fill="#000000" fill-opacity="0"></use><g><use xlink:href="#a1t1I97sm8" opacity="0.49" fill-opacity="0" stroke="#000000" stroke-width="1" stroke-opacity="1"></use></g></g><g><use xlink:href="#bqdrNjTsh" opacity="1" fill="#000000" fill-opacity="1"></use><g><use xlink:href="#bqdrNjTsh" opacity="1" fill-opacity="0" stroke="#000000" stroke-width="1" stroke-opacity="0"></use></g></g><g><use xlink:href="#c2LGXhBS" opacity="1" fill="#a6a6a6" fill-opacity="1"></use><g><use xlink:href="#c2LGXhBS" opacity="1" fill-opacity="0" stroke="#000000" stroke-width="1" stroke-opacity="0"></use></g></g><g><use xlink:href="#b29B0o6lLe" opacity="1" fill="#666666" fill-opacity="1"></use><g><use xlink:href="#b29B0o6lLe" opacity="1" fill-opacity="0" stroke="#000000" stroke-width="1" stroke-opacity="0"></use></g></g><g><use xlink:href="#binc4bb5D" opacity="1" fill="#000000" fill-opacity="1"></use><g><use xlink:href="#binc4bb5D" opacity="1" fill-opacity="0" stroke="#000000" stroke-width="1" stroke-opacity="0"></use></g></g><g><use xlink:href="#c1ukICTocf" opacity="1" fill="#000000" fill-opacity="1"></use><g><use xlink:href="#c1ukICTocf" opacity="1" fill-opacity="0" stroke="#000000" stroke-width="1" stroke-opacity="0"></use></g></g><g><use xlink:href="#a2CWF2Gq6" opacity="1" fill="#000000" fill-opacity="1"></use><g><use xlink:href="#a2CWF2Gq6" opacity="1" fill-opacity="0" stroke="#000000" stroke-width="1" stroke-opacity="0"></use></g></g><g><use xlink:href="#e13fnNnvLb" opacity="1" fill="#000000" fill-opacity="0"></use><g><use xlink:href="#e13fnNnvLb" opacity="1" fill-opacity="0" stroke="#000000" stroke-width="1" stroke-opacity="1"></use></g></g><g><use xlink:href="#f3Shg9mIa9" opacity="1" fill="#000000" fill-opacity="1"></use><g><use xlink:href="#f3Shg9mIa9" opacity="1" fill-opacity="0" stroke="#000000" stroke-width="1" stroke-opacity="0"></use></g></g><g><use xlink:href="#anwrxNvdC" opacity="1" fill="#a6a6a6" fill-opacity="1"></use><g><use xlink:href="#anwrxNvdC" opacity="1" fill-opacity="0" stroke="#000000" stroke-width="1" stroke-opacity="0"></use></g></g><g><use xlink:href="#j3ivLjuD0e" opacity="1" fill="#666666" fill-opacity="1"></use><g><use xlink:href="#j3ivLjuD0e" opacity="1" fill-opacity="0" stroke="#000000" stroke-width="1" stroke-opacity="0"></use></g></g><g><use xlink:href="#ep15yVnP" opacity="0.68" fill="#000000" fill-opacity="1"></use><g><use xlink:href="#ep15yVnP" opacity="0.68" fill-opacity="0" stroke="#000000" stroke-width="1" stroke-opacity="0"></use></g></g><g><use xlink:href="#cPcvGNNeL" opacity="0.7" fill="#000000" fill-opacity="1"></use><g><use xlink:href="#cPcvGNNeL" opacity="0.7" fill-opacity="0" stroke="#000000" stroke-width="1" stroke-opacity="0"></use></g></g><g><use xlink:href="#dF6sl4BpR" opacity="1" fill="#000000" fill-opacity="0"></use><g><use xlink:href="#dF6sl4BpR" opacity="1" fill-opacity="0" stroke="#000000" stroke-width="1" stroke-opacity="1"></use></g></g><g><use xlink:href="#diDhR7Gef" opacity="0.7" fill="#000000" fill-opacity="1"></use><g><use xlink:href="#diDhR7Gef" opacity="0.7" fill-opacity="0" stroke="#000000" stroke-width="1" stroke-opacity="0"></use></g></g></g></g></svg>