<?xml version="1.0" encoding="UTF-8" standalone="no"?>
<!-- Created with Inkscape (http://www.inkscape.org/) -->

<svg
   xmlns:dc="http://purl.org/dc/elements/1.1/"
   xmlns:cc="http://creativecommons.org/ns#"
   xmlns:rdf="http://www.w3.org/1999/02/22-rdf-syntax-ns#"
   xmlns:svg="http://www.w3.org/2000/svg"
   xmlns="http://www.w3.org/2000/svg"
   xmlns:sodipodi="http://sodipodi.sourceforge.net/DTD/sodipodi-0.dtd"
   xmlns:inkscape="http://www.inkscape.org/namespaces/inkscape"
   width="765.34277"
   height="278.64337"
   id="svg2"
   version="1.1"
   inkscape:version="0.48.4 r9939"
   sodipodi:docname="New document 1">
  <sodipodi:namedview
     id="base"
     pagecolor="#ffffff"
     bordercolor="#666666"
     borderopacity="1.0"
     inkscape:pageopacity="0.0"
     inkscape:pageshadow="2"
     inkscape:zoom="0.98994949"
     inkscape:cx="415.29293"
     inkscape:cy="239.02239"
     inkscape:document-units="px"
     inkscape:current-layer="layer1"
     showgrid="false"
     inkscape:window-width="1440"
     inkscape:window-height="850"
     inkscape:window-x="0"
     inkscape:window-y="0"
     inkscape:window-maximized="1"
     fit-margin-top="30"
     fit-margin-left="30"
     fit-margin-right="30"
     fit-margin-bottom="30">
    <inkscape:grid
       spacingy="0.2in"
       spacingx="0.2in"
       snapvisiblegridlinesonly="true"
       enabled="true"
       visible="true"
       empspacing="5"
       units="in"
       id="grid2992"
       type="xygrid"
       originx="-1.2519267in"
       originy="-3.6737147in" />
  </sodipodi:namedview>
  <defs
     id="defs4">
    <marker
       style="overflow:visible"
       id="Arrow2Mend"
       refX="0"
       refY="0"
       orient="auto"
       inkscape:stockid="Arrow2Mend">
      <path
         transform="scale(-0.6,-0.6)"
         d="M 8.7185878,4.0337352 -2.2072895,0.01601326 8.7185884,-4.0017078 c -1.7454984,2.3720609 -1.7354408,5.6174519 -6e-7,8.035443 z"
         style="fill-rule:evenodd;stroke-width:0.625;stroke-linejoin:round"
         id="path4040"
         inkscape:connector-curvature="0" />
    </marker>
    <marker
       style="overflow:visible"
       id="Arrow1Mend"
       refX="0"
       refY="0"
       orient="auto"
       inkscape:stockid="Arrow1Mend">
      <path
         transform="matrix(-0.4,0,0,-0.4,-4,0)"
         style="fill-rule:evenodd;stroke:#000000;stroke-width:1pt"
         d="M 0,0 5,-5 -12.5,0 5,5 0,0 z"
         id="path4022"
         inkscape:connector-curvature="0" />
    </marker>
    <marker
       style="overflow:visible"
       id="Arrow2Mend1"
       refX="0"
       refY="0"
       orient="auto"
       inkscape:stockid="Arrow2Mend1">
      <path
         transform="scale(-0.6,-0.6)"
         d="M 8.7185878,4.0337352 -2.2072895,0.01601326 8.7185884,-4.0017078 c -1.7454984,2.3720609 -1.7354408,5.6174519 -6e-7,8.035443 z"
         style="fill:#4d4d4d;fill-rule:evenodd;stroke:#4d4d4d;stroke-width:0.625;stroke-linejoin:round"
         id="path4830"
         inkscape:connector-curvature="0" />
    </marker>
  </defs>
  <metadata
     id="metadata7">
    <rdf:RDF>
      <cc:Work
         rdf:about="">
        <dc:format>image/svg+xml</dc:format>
        <dc:type
           rdf:resource="http://purl.org/dc/dcmitype/StillImage" />
        <dc:title></dc:title>
      </cc:Work>
    </rdf:RDF>
  </metadata>
  <g
     id="layer1"
     inkscape:groupmode="layer"
     inkscape:label="Layer 1"
     transform="translate(-112.6734,-443.0845)">
    <path
       transform="matrix(0.2375,0,0,0.58661165,137.15571,281.2833)"
       d="m 211.42858,547.36218 c 0,31.55913 -12.79187,57.14286 -28.57143,57.14286 -15.77957,0 -28.57143,-25.58373 -28.57143,-57.14286 0,-31.55913 12.79186,-57.14285 28.57143,-57.14285 15.77956,0 28.57143,25.58372 28.57143,57.14285 z"
       sodipodi:ry="57.142857"
       sodipodi:rx="28.571428"
       sodipodi:cy="547.36218"
       sodipodi:cx="182.85715"
       id="path2985"
       style="color:#000000;fill:#ffdddd;fill-opacity:1;fill-rule:nonzero;stroke:#f44800;stroke-width:5.35824823;stroke-linecap:butt;stroke-linejoin:miter;stroke-miterlimit:4;stroke-opacity:1;stroke-dasharray:none;stroke-dashoffset:0;marker:none;visibility:visible;display:inline;overflow:visible;enable-background:accumulate"
       sodipodi:type="arc" />
    <path
       inkscape:transform-center-y="-0.10312631"
       inkscape:transform-center-x="-271.53635"
       transform="matrix(1.9729928,-0.32756785,0.32756785,1.9729928,-727.4476,-467.59875)"
       sodipodi:end="0.32652027"
       sodipodi:start="0"
       d="m 630,602.36218 c 0,29.45227 -4.81888,58.70612 -14.26567,86.60226 L 360,602.36218 z"
       sodipodi:ry="270"
       sodipodi:rx="270"
       sodipodi:cy="602.36218"
       sodipodi:cx="360"
       id="path2994"
       style="color:#000000;fill:#cdec8c;fill-opacity:1;fill-rule:nonzero;stroke:#9cc04b;stroke-width:1.5;stroke-linecap:butt;stroke-linejoin:miter;stroke-miterlimit:4;stroke-opacity:1;stroke-dasharray:none;stroke-dashoffset:0;marker:none;visibility:visible;display:inline;overflow:visible;enable-background:accumulate"
       sodipodi:type="arc" />
    <path
       sodipodi:type="arc"
       style="color:#000000;fill:#9cc04b;fill-opacity:1;fill-rule:nonzero;stroke:#9cc04b;stroke-width:2.98292184;stroke-linecap:butt;stroke-linejoin:miter;stroke-miterlimit:4;stroke-opacity:1;stroke-dasharray:none;stroke-dashoffset:0;marker:none;visibility:visible;display:inline;overflow:visible;enable-background:accumulate"
       id="path3029"
       sodipodi:cx="182.85715"
       sodipodi:cy="547.36218"
       sodipodi:rx="28.571428"
       sodipodi:ry="57.142857"
       d="m 211.42858,547.36218 c 0,31.55913 -12.79187,57.14286 -28.57143,57.14286 -15.77957,0 -28.57143,-25.58373 -28.57143,-57.14286 0,-31.55913 12.79186,-57.14285 28.57143,-57.14285 15.77956,0 28.57143,25.58372 28.57143,57.14285 z"
       transform="matrix(0.66390874,0,0,1.5235281,591.18383,-231.54936)" />
    <path
       inkscape:connector-curvature="0"
       id="path3799"
       d="m 180,602.36218 630,0"
       style="fill:#4d4d4d;stroke:#4d4d4d;stroke-width:2;stroke-linecap:butt;stroke-linejoin:miter;stroke-miterlimit:4;stroke-opacity:1;stroke-dasharray:12, 4;stroke-dashoffset:0;marker-end:url(#Arrow2Mend1)" />
    <g
       transform="matrix(0.608987,0,0,0.608987,-39.593856,398.96118)"
       id="g3811"
       style="fill:#4d4d4d;stroke:#4d4d4d;stroke-width:0.82103556;stroke-miterlimit:4;stroke-dasharray:none">
      <g
         style="font-style:normal;font-variant:normal;font-weight:normal;font-stretch:normal;letter-spacing:normal;word-spacing:normal;text-anchor:start;fill:#4d4d4d;stroke:#4d4d4d;stroke-width:0.77238166;stroke-linecap:butt;stroke-linejoin:miter;stroke-miterlimit:4;stroke-opacity:1;stroke-dasharray:none;stroke-dashoffset:0"
         word-spacing="normal"
         letter-spacing="normal"
         font-size-adjust="none"
         font-stretch="normal"
         font-weight="normal"
         font-variant="normal"
         font-style="normal"
         stroke-miterlimit="10.433"
         xml:space="preserve"
         transform="matrix(1.0629921,0,0,-1.0629921,-186.02362,789.27165)"
         id="content"><path
           style="fill:#4d4d4d;stroke:#4d4d4d;stroke-width:0.77238166;stroke-miterlimit:4;stroke-dasharray:none"
           inkscape:connector-curvature="0"
           id="path3814"
           d="m 480.71,435.84 -0.07,-0.06 -0.07,-0.07 -0.08,-0.07 -0.08,-0.07 -0.08,-0.08 -0.09,-0.08 -0.09,-0.09 -0.1,-0.08 -0.09,-0.09 -0.1,-0.1 -0.19,-0.19 -0.2,-0.19 -0.19,-0.21 -0.09,-0.1 -0.09,-0.1 -0.09,-0.1 -0.08,-0.11 -0.08,-0.1 -0.08,-0.1 -0.07,-0.1 -0.06,-0.1 -0.06,-0.1 -0.06,-0.1 -0.04,-0.1 -0.04,-0.09 -0.03,-0.09 -0.02,-0.1 -0.02,-0.08 0,-0.09 c 0,-0.5 0.5,-1 1,-1 0.45,0 0.7,0.36 0.95,0.66 0.59,0.75 1.73,2.14 3.94,3.23 0.34,0.21 0.84,0.46 0.84,1.05 0,0.5 -0.34,0.75 -0.7,1 -1.1,0.75 -1.64,1.64 -2.05,2.83 -0.09,0.45 -0.3,1.11 -0.98,1.11 -0.71,0 -1,-0.66 -1,-1.05 0,-0.25 0.39,-1.84 1.18,-2.89 h -16.78 c -0.84,0 -1.75,0 -1.75,-1 0,-1 0.91,-1 1.75,-1 z" /><path
           style="fill:#4d4d4d;stroke:#4d4d4d;stroke-width:0.77238166;stroke-miterlimit:4;stroke-dasharray:none"
           inkscape:connector-curvature="0"
           id="path3816"
           d="m 459.91,409.14 -0.02,-0.07 -0.01,-0.08 -0.02,-0.07 -0.02,-0.08 -0.03,-0.16 -0.04,-0.16 -0.04,-0.16 -0.04,-0.16 -0.03,-0.16 -0.04,-0.16 -0.02,-0.08 -0.01,-0.07 -0.02,-0.07 -0.01,-0.07 -0.02,-0.07 -0.01,-0.07 -0.02,-0.06 -0.01,-0.06 -0.01,-0.06 -0.01,-0.05 -0.01,-0.05 0,-0.04 -0.01,-0.04 0,-0.04 -0.01,-0.03 0,-0.02 c 0,-0.89 0.71,-1.35 1.44,-1.35 0.61,0 1.5,0.39 1.84,1.39 0.11,0.21 1.8,6.99 2,7.88 0.39,1.64 1.3,5.12 1.6,6.48 0.2,0.64 1.59,2.99 2.78,4.08 0.41,0.34 1.84,1.64 4,1.64 1.28,0 2.03,-0.59 2.08,-0.59 -1.49,-0.25 -2.58,-1.46 -2.58,-2.74 0,-0.79 0.55,-1.75 1.89,-1.75 1.34,0 2.73,1.14 2.73,2.94 0,1.75 -1.59,3.23 -4.12,3.23 -3.25,0 -5.44,-2.43 -6.39,-3.82 -0.39,2.23 -2.19,3.82 -4.53,3.82 -2.28,0 -3.24,-1.93 -3.69,-2.82 -0.89,-1.71 -1.55,-4.69 -1.55,-4.85 0,-0.5 0.5,-0.5 0.61,-0.5 0.5,0 0.55,0.07 0.85,1.16 0.84,3.53 1.84,5.92 3.64,5.92 0.84,0 1.54,-0.39 1.54,-2.28 0,-1.05 -0.15,-1.61 -0.79,-4.19 z" /></g>    </g>
    <g
       style="fill:#4d4d4d;stroke:#4d4d4d;stroke-width:0.78405553;stroke-miterlimit:4;stroke-dasharray:none"
       transform="matrix(0.608987,0,0,0.6677876,645.86143,374.86046)"
       id="g3844">
      <g
         style="font-style:normal;font-variant:normal;font-weight:normal;font-stretch:normal;letter-spacing:normal;word-spacing:normal;text-anchor:start;fill:#4d4d4d;stroke:#4d4d4d;stroke-width:0.737593;stroke-linecap:butt;stroke-linejoin:miter;stroke-miterlimit:4;stroke-opacity:1;stroke-dasharray:none;stroke-dashoffset:0"
         id="g3846"
         transform="matrix(1.0629921,0,0,-1.0629921,-186.02362,789.27165)"
         xml:space="preserve"
         stroke-miterlimit="10.433"
         font-style="normal"
         font-variant="normal"
         font-weight="normal"
         font-stretch="normal"
         font-size-adjust="none"
         letter-spacing="normal"
         word-spacing="normal"><path
           style="fill:#4d4d4d;stroke:#4d4d4d;stroke-width:0.737593;stroke-miterlimit:4;stroke-dasharray:none"
           inkscape:connector-curvature="0"
           d="m 482.51,448.92 -0.07,-0.06 -0.07,-0.07 -0.07,-0.07 -0.09,-0.07 -0.08,-0.08 -0.09,-0.08 -0.09,-0.09 -0.09,-0.08 -0.1,-0.09 -0.1,-0.09 -0.19,-0.19 -0.2,-0.2 -0.19,-0.2 -0.09,-0.11 -0.09,-0.1 -0.09,-0.1 -0.08,-0.1 -0.08,-0.11 -0.08,-0.1 -0.07,-0.1 -0.06,-0.1 -0.06,-0.1 -0.05,-0.1 -0.05,-0.1 -0.04,-0.09 -0.03,-0.09 -0.02,-0.09 -0.02,-0.09 0,-0.09 c 0,-0.5 0.5,-1 1,-1 0.45,0 0.7,0.36 0.95,0.66 0.59,0.75 1.74,2.14 3.94,3.24 0.34,0.2 0.84,0.45 0.84,1.04 0,0.5 -0.34,0.75 -0.7,1 -1.09,0.75 -1.64,1.64 -2.05,2.83 -0.09,0.45 -0.29,1.11 -0.98,1.11 -0.71,0 -1,-0.66 -1,-1.05 0,-0.25 0.39,-1.84 1.19,-2.89 h -16.79 c -0.84,0 -1.75,0 -1.75,-1 0,-1 0.91,-1 1.75,-1 z"
           id="path3848" /><path
           style="fill:#4d4d4d;stroke:#4d4d4d;stroke-width:0.737593;stroke-miterlimit:4;stroke-dasharray:none"
           inkscape:connector-curvature="0"
           d="m 478.19,431.11 0,0.31 -0.01,0.34 -0.02,0.36 -0.02,0.37 -0.03,0.39 -0.04,0.39 -0.04,0.41 -0.06,0.41 -0.07,0.42 -0.07,0.43 -0.09,0.42 -0.1,0.43 -0.12,0.42 -0.12,0.42 -0.14,0.41 -0.16,0.41 -0.17,0.4 -0.18,0.38 -0.2,0.37 -0.22,0.36 -0.23,0.34 -0.25,0.32 -0.28,0.3 -0.29,0.27 -0.31,0.25 -0.16,0.12 -0.17,0.1 -0.17,0.1 -0.18,0.1 -0.18,0.08 -0.19,0.08 -0.19,0.07 -0.2,0.06 -0.21,0.05 -0.21,0.05 -0.22,0.03 -0.22,0.02 -0.23,0.02 -0.23,0 -0.05,-1.09 c 2.44,0 2.73,-3.19 2.73,-6.03 0,-2.44 -0.39,-4.99 -1.59,-9.92 h -10.41 c 0.85,3.2 1.85,7.18 3.83,10.72 1.36,2.43 3.19,5.23 5.44,5.23 l 0.05,1.09 c -6.92,0 -14.6,-14.04 -14.6,-25.45 0,-4.69 1.44,-10.22 5.99,-10.22 v 1.1 c -1.66,0 -2.71,1.45 -2.71,6.07 0,2.1 0.3,4.99 1.6,9.86 h 10.37 c -0.54,-2.28 -1.59,-6.51 -3.5,-10.11 -1.73,-3.39 -3.62,-5.82 -5.76,-5.82 v -1.1 c 7.01,0 14.59,14.3 14.59,25.46 z"
           id="path3850" /></g>    </g>
    <g
       style="color:#000000;fill:#9cc04b;fill-opacity:1;fill-rule:nonzero;stroke:#9cc04b;stroke-width:0.82103556;stroke-linecap:butt;stroke-linejoin:miter;stroke-miterlimit:4;stroke-opacity:1;stroke-dasharray:none;stroke-dashoffset:0;marker:none;visibility:visible;display:inline;overflow:visible;enable-background:accumulate"
       transform="matrix(0.608987,0,0,0.608987,504.99343,278.37424)"
       id="g3886">
      <g
         style="font-style:normal;font-variant:normal;font-weight:normal;font-stretch:normal;letter-spacing:normal;word-spacing:normal;text-anchor:start;color:#000000;fill:#9cc04b;fill-opacity:1;fill-rule:nonzero;stroke:#9cc04b;stroke-width:0.77238166;stroke-linecap:butt;stroke-linejoin:miter;stroke-miterlimit:4;stroke-opacity:1;stroke-dasharray:none;stroke-dashoffset:0;marker:none;visibility:visible;display:inline;overflow:visible;enable-background:accumulate"
         word-spacing="normal"
         letter-spacing="normal"
         font-size-adjust="none"
         font-stretch="normal"
         font-weight="normal"
         font-variant="normal"
         font-style="normal"
         stroke-miterlimit="10.433"
         xml:space="preserve"
         transform="matrix(1.0629921,0,0,-1.0629921,-186.02362,789.27165)"
         id="g3888"><path
           style="color:#000000;fill:#9cc04b;fill-opacity:1;fill-rule:nonzero;stroke:#9cc04b;stroke-width:0.77238166;stroke-linecap:butt;stroke-linejoin:miter;stroke-miterlimit:4;stroke-opacity:1;stroke-dasharray:none;stroke-dashoffset:0;marker:none;visibility:visible;display:inline;overflow:visible;enable-background:accumulate"
           inkscape:connector-curvature="0"
           id="path3890"
           d="m 474.46,408.93 v -3.28 l 7.31,0.55 v 1.55 c -3.48,0 -3.88,0.34 -3.88,2.78 v 30.25 l -7.17,-0.55 v -1.55 c 3.49,0 3.88,-0.34 3.88,-2.79 v -10.75 c -1.44,1.78 -3.58,3.07 -6.28,3.07 l 0.2,-1.09 c 1.75,0 3.84,-0.75 5.39,-2.98 0.55,-0.85 0.55,-0.96 0.55,-1.85 h 0 v -10.22 c 0,-0.89 0,-1 -0.55,-1.84 -1.5,-2.39 -3.75,-3.48 -5.89,-3.48 -2.23,0 -4.03,1.29 -5.22,3.18 -1.3,2.05 -1.45,4.89 -1.45,6.93 0,1.84 0.09,4.84 1.54,7.07 1.05,1.55 2.94,3.19 5.63,3.19 l -0.2,1.09 c -5.88,0 -11.11,-4.87 -11.11,-11.29 0,-6.33 4.89,-11.27 10.56,-11.27 3.19,0 5.44,1.69 6.69,3.28 z" /><path
           style="color:#000000;fill:#9cc04b;fill-opacity:1;fill-rule:nonzero;stroke:#9cc04b;stroke-width:0.77238166;stroke-linecap:butt;stroke-linejoin:miter;stroke-miterlimit:4;stroke-opacity:1;stroke-dasharray:none;stroke-dashoffset:0;marker:none;visibility:visible;display:inline;overflow:visible;enable-background:accumulate"
           inkscape:connector-curvature="0"
           id="path3892"
           d="m 516.97,414.28 h -1.25 c -0.25,-1.3 -0.45,-2.46 -0.89,-3.64 -0.25,-0.8 -0.4,-1.21 -3.29,-1.21 h -3.99 c 0.64,2.8 2.19,5.19 4.44,8.47 2.34,3.55 4.37,6.99 4.37,10.92 0,6.93 -6.72,12.5 -15.14,12.5 -8.56,0 -15.18,-5.68 -15.18,-12.5 0,-3.93 2.03,-7.37 4.37,-10.92 2.19,-3.28 3.78,-5.67 4.44,-8.47 h -3.99 c -2.89,0 -3.04,0.41 -3.29,1.16 -0.39,1.14 -0.64,2.44 -0.89,3.69 h -1.25 l 1.65,-8.08 h 7.97 c 1.09,0 1.24,0 1.24,1.05 0,3.48 -1.54,7.87 -2.69,11.06 -1.05,2.89 -2.44,6.83 -2.44,10.56 0,7.97 5.48,11.36 10.02,11.36 4.78,0 10.06,-3.59 10.06,-11.36 0,-3.73 -1.35,-7.53 -2.8,-11.61 -0.73,-2.09 -2.33,-6.58 -2.33,-10.01 0,-1.05 0.14,-1.05 1.28,-1.05 h 7.93 z" /></g>    </g>
    <g
       style="fill:#f44800;fill-opacity:1;stroke:#f44800;stroke-width:0.82103556;stroke-miterlimit:4;stroke-dasharray:none"
       transform="matrix(0.608987,0,0,0.608987,-5.434221,336.77694)"
       id="g3936">
      <g
         style="font-style:normal;font-variant:normal;font-weight:normal;font-stretch:normal;letter-spacing:normal;word-spacing:normal;text-anchor:start;fill:#f44800;fill-opacity:1;stroke:#f44800;stroke-width:0.77238166;stroke-linecap:butt;stroke-linejoin:miter;stroke-miterlimit:4;stroke-opacity:1;stroke-dasharray:none;stroke-dashoffset:0"
         id="g3938"
         transform="matrix(1.0629921,0,0,-1.0629921,-186.02362,789.27165)"
         xml:space="preserve"
         stroke-miterlimit="10.433"
         font-style="normal"
         font-variant="normal"
         font-weight="normal"
         font-stretch="normal"
         font-size-adjust="none"
         letter-spacing="normal"
         word-spacing="normal"><path
           style="fill:#f44800;fill-opacity:1;stroke:#f44800;stroke-width:0.77238166;stroke-miterlimit:4;stroke-dasharray:none"
           inkscape:connector-curvature="0"
           d="m 474.46,408.93 v -3.28 l 7.31,0.55 v 1.55 c -3.48,0 -3.88,0.34 -3.88,2.78 v 30.25 l -7.17,-0.55 v -1.55 c 3.49,0 3.88,-0.34 3.88,-2.79 v -10.75 c -1.44,1.78 -3.58,3.07 -6.28,3.07 l 0.2,-1.09 c 1.75,0 3.84,-0.75 5.39,-2.98 0.55,-0.85 0.55,-0.96 0.55,-1.85 h 0 v -10.22 c 0,-0.89 0,-1 -0.55,-1.84 -1.5,-2.39 -3.75,-3.48 -5.89,-3.48 -2.23,0 -4.03,1.29 -5.22,3.18 -1.3,2.05 -1.45,4.89 -1.45,6.93 0,1.84 0.09,4.84 1.54,7.07 1.05,1.55 2.94,3.19 5.63,3.19 l -0.2,1.09 c -5.88,0 -11.11,-4.87 -11.11,-11.29 0,-6.33 4.89,-11.27 10.56,-11.27 3.19,0 5.44,1.69 6.69,3.28 z"
           id="path3940" /><path
           style="fill:#f44800;fill-opacity:1;stroke:#f44800;stroke-width:0.77238166;stroke-miterlimit:4;stroke-dasharray:none"
           inkscape:connector-curvature="0"
           d="m 492.16,411.93 -0.19,-0.3 -0.18,-0.29 -0.19,-0.28 -0.19,-0.26 -0.18,-0.25 -0.19,-0.23 -0.19,-0.22 -0.18,-0.21 -0.19,-0.2 -0.19,-0.18 -0.18,-0.17 -0.19,-0.16 -0.19,-0.15 -0.19,-0.14 -0.18,-0.13 -0.19,-0.12 -0.19,-0.11 -0.19,-0.1 -0.19,-0.09 -0.19,-0.09 -0.19,-0.07 -0.2,-0.07 -0.19,-0.07 -0.2,-0.05 -0.19,-0.05 -0.2,-0.04 -0.2,-0.04 -0.2,-0.03 -0.4,-0.05 -0.4,-0.03 c -0.61,-0.05 -1.05,-0.05 -1.05,-1 0,-0.3 0.25,-0.55 0.64,-0.55 1.34,0 2.89,0.16 4.28,0.16 1.64,0 3.39,-0.16 4.98,-0.16 0.3,0 0.96,0 0.96,0.95 0,0.55 -0.46,0.6 -0.8,0.6 -1.16,0.09 -2.34,0.5 -2.34,1.73 0,0.61 0.29,1.16 0.68,1.84 l 3.8,6.39 h 12.5 l -0.14,1.54 h -11.42 l 9.83,16.45 1.59,-16.45 0.14,-1.54 c 0.11,-1.04 0.8,-7.82 0.8,-8.32 0,-1.5 -2.6,-1.64 -3.58,-1.64 -0.7,0 -1.2,0 -1.2,-1 0,-0.55 0.59,-0.55 0.7,-0.55 2.03,0 4.19,0.16 6.22,0.16 1.25,0 4.39,-0.16 5.64,-0.16 0.3,0 0.89,0 0.89,1 0,0.55 -0.5,0.55 -1.14,0.55 -3.09,0 -3.09,0.34 -3.25,1.79 l -3.03,31.13 c -0.11,1 -0.11,1.2 -0.95,1.2 -0.8,0 -0.99,-0.34 -1.3,-0.84 z"
           id="path3942" /><path
           style="fill:#f44800;fill-opacity:1;stroke:#f44800;stroke-width:0.77238166;stroke-miterlimit:4;stroke-dasharray:none"
           inkscape:connector-curvature="0"
           d="m 536.97,447.03 0,0.05 -0.01,0.05 0,0.05 0,0.05 0,0.06 0,0.05 0,0.06 -0.01,0.06 0,0.05 -0.01,0.06 -0.01,0.06 -0.01,0.05 -0.01,0.06 -0.01,0.05 -0.02,0.06 -0.02,0.05 -0.02,0.05 -0.02,0.05 -0.03,0.05 -0.03,0.04 -0.03,0.05 -0.03,0.04 -0.04,0.03 -0.02,0.02 -0.02,0.02 -0.03,0.01 -0.02,0.02 -0.02,0.01 -0.03,0.02 -0.03,0.01 -0.02,0.01 -0.03,0.01 -0.03,0.01 -0.03,0.01 -0.03,0.01 -0.03,0 -0.04,0.01 -0.03,0 -0.04,0 -0.03,0.01 -0.04,0 c -0.88,0 -0.88,-0.82 -0.88,-1.36 V 425.9 h -10.62 c -0.54,0 -1.39,0 -1.39,-0.83 0,-0.87 0.79,-0.87 1.39,-0.87 h 22.96 c 0.55,0 1.4,0 1.4,0.84 0,0.86 -0.82,0.86 -1.4,0.86 h -10.63 z"
           id="path3944" /></g>    </g>
    <path
       style="fill:none;stroke:#4d4d4d;stroke-width:1px;stroke-linecap:butt;stroke-linejoin:miter;stroke-opacity:1"
       d="m 175.5,597.86218 9,9"
       id="path4886"
       inkscape:connector-curvature="0" />
    <path
       style="fill:none;stroke:#4d4d4d;stroke-width:1px;stroke-linecap:butt;stroke-linejoin:miter;stroke-opacity:1"
       d="m 175.5,606.86218 9,-9"
       id="path4888"
       inkscape:connector-curvature="0" />
  </g>
</svg>
