<?xml version="1.0" encoding="UTF-8" standalone="no"?>
<!-- Created with Serif DrawPlus 11, 0, 3, 23 (Feb 25, 14:12:55) (http://www.serif.com) -->
<svg version="1.1" xmlns="http://www.w3.org/2000/svg" xmlns:xlink="http://www.w3.org/1999/xlink" width="227.003" height="373.279">
	<g id="selection" transform="matrix(1,0,0,1,16.7907,113.288)">
		<g id="dp_group001">
			<path id="dp_path002" fill="none" fill-rule="evenodd" stroke="#1e02ab" stroke-width="1.33333" d="M 102.807,76.228 C 102.547,56.056 114.793,34.0507 139.228,22.8253"/>
			<path id="dp_path003" fill="none" fill-rule="evenodd" stroke="#1e02ab" stroke-width="1.33333" d="M 100.393,91.7373 C 89.6453,75.3227 91.416,57.1453 98.6627,39.64 C 101.221,33.4573 104.403,27.5973 108.063,22.0733"/>
			<path id="dp_path004" fill="none" fill-rule="evenodd" stroke="#1e02ab" stroke-width="1.33333" d="M 71.0533,64.9733 C 84.9787,46.776 96.0773,20.9333 96.76,-4.99733"/>
			<path id="dp_path005" fill="#00b050" fill-rule="evenodd" fill-opacity="0.898039" stroke="none" stroke-width="1.33333" d="M 28.2467,0.745333 L 113.273,-31.944 L 192.52,20.308 L 107.493,52.9973 Z "/>
			<path id="dp_path006" fill="#005c2a" fill-rule="evenodd" stroke="none" stroke-width="0.461333" stroke-linejoin="round" stroke-linecap="square" d="M 65.964,5.63733 L 73.736,2.71733 L 79.9947,6.94133 L 72.224,9.86133 Z "/>
			<path id="dp_path007" fill="#005c2a" fill-rule="evenodd" stroke="none" stroke-width="0.461333" stroke-linejoin="round" stroke-linecap="square" d="M 89.4707,-5.832 L 97.2427,-8.752 L 103.501,-4.528 L 95.7307,-1.608 Z "/>
			<path id="dp_path008" fill="#005c2a" fill-rule="evenodd" stroke="none" stroke-width="0.461333" stroke-linejoin="round" stroke-linecap="square" d="M 101.251,19.792 L 109.023,16.872 L 115.281,21.096 L 107.511,24.016 Z "/>
			<path id="dp_path009" fill="#005c2a" fill-rule="evenodd" stroke="none" stroke-width="0.461333" stroke-linejoin="round" stroke-linecap="square" d="M 132.131,21.964 L 139.903,19.044 L 146.161,23.268 L 138.391,26.188 Z "/>
			<g id="dp_group010">
				<g id="dp_group011">
					<path id="dp_path012" fill="#1e02ab" fill-rule="evenodd" d="M 57.9707,-99.4773 L 58.8627,-100.468 L 60.648,-102.449 L 53.464,-104.435 L 56.1867,-97.496 Z "/>
					<path id="dp_path013" fill="#1e02ab" d="M 97.4253,-4.98133 L 97.444,-5.82133 L 97.4587,-6.664 L 97.4693,-7.50533 L 97.4747,-8.34667 L 97.4773,-9.18533 L 97.472,-10.0267 L 97.4627,-10.868 L 97.4493,-11.7093 L 97.432,-12.5507 L 97.408,-13.392 L 97.3813,-14.232 L 97.348,-15.0733 L 97.3107,-15.912 L 97.268,-16.7533 L 97.22,-17.5933 L 97.1653,-18.4333 L 97.108,-19.2707 L 97.0453,-20.1107 L 96.9773,-20.948 L 96.904,-21.7867 L 96.8253,-22.6253 L 96.7427,-23.4613 L 96.6547,-24.2987 L 96.56,-25.1347 L 96.4613,-25.9707 L 96.356,-26.8053 L 96.2467,-27.64 L 96.1333,-28.4747 L 96.012,-29.3093 L 95.8867,-30.14 L 95.756,-30.9747 L 95.62,-31.8053 L 95.4773,-32.636 L 95.332,-33.4667 L 95.1787,-34.2973 L 95.02,-35.1253 L 94.8573,-35.9533 L 94.688,-36.7813 L 94.512,-37.6067 L 94.3333,-38.432 L 94.1467,-39.256 L 93.956,-40.08 L 93.7587,-40.904 L 93.556,-41.7253 L 93.348,-42.5453 L 93.1333,-43.3667 L 92.9133,-44.184 L 92.688,-45.0013 L 92.456,-45.82 L 92.2187,-46.6347 L 91.976,-47.4493 L 91.7267,-48.2627 L 91.472,-49.0747 L 91.2107,-49.8853 L 90.9453,-50.6947 L 90.672,-51.504 L 90.3933,-52.3107 L 90.108,-53.1187 L 89.8173,-53.9227 L 89.5213,-54.7253 L 89.2187,-55.528 L 88.9093,-56.328 L 88.5947,-57.128 L 88.2747,-57.9267 L 87.9467,-58.7227 L 87.6133,-59.5173 L 87.2747,-60.3107 L 86.928,-61.1027 L 86.5747,-61.8933 L 86.2173,-62.6827 L 85.852,-63.4693 L 85.4813,-64.256 L 85.104,-65.0387 L 84.7187,-65.8227 L 84.3293,-66.6013 L 83.9333,-67.3813 L 83.5307,-68.1573 L 83.1213,-68.9347 L 82.704,-69.708 L 82.2813,-70.4787 L 81.8533,-71.2493 L 81.4187,-72.0187 L 80.9747,-72.784 L 80.5267,-73.548 L 80.072,-74.3107 L 79.6093,-75.072 L 79.14,-75.8307 L 78.6653,-76.5867 L 78.1827,-77.3413 L 77.6947,-78.0933 L 77.1987,-78.8453 L 76.696,-79.5933 L 76.1867,-80.3387 L 75.6707,-81.0827 L 75.148,-81.8253 L 74.6187,-82.564 L 74.0813,-83.3013 L 73.5387,-84.0373 L 72.9867,-84.7707 L 72.4293,-85.5013 L 71.8653,-86.2293 L 71.2933,-86.956 L 70.7147,-87.68 L 70.128,-88.4013 L 69.536,-89.12 L 68.9373,-89.8373 L 68.3293,-90.5507 L 67.716,-91.2627 L 67.0947,-91.9707 L 66.4667,-92.6787 L 65.8293,-93.3827 L 65.188,-94.084 L 64.536,-94.7827 L 63.88,-95.4787 L 63.2147,-96.1733 L 62.5427,-96.8653 L 61.8627,-97.552 L 61.1773,-98.2387 L 60.4827,-98.92 L 59.78,-99.6013 L 59.0667,-100.284 L 58.864,-100.468 L 57.9707,-99.4787 L 58.16,-99.308 L 58.8573,-98.6413 L 59.552,-97.968 L 60.2387,-97.292 L 60.9187,-96.6133 L 61.5907,-95.932 L 62.2573,-95.248 L 62.9147,-94.5613 L 63.5653,-93.8733 L 64.2093,-93.18 L 64.8453,-92.4867 L 65.4747,-91.7907 L 66.0947,-91.0907 L 66.7107,-90.388 L 67.3187,-89.684 L 67.9187,-88.9787 L 68.512,-88.2693 L 69.0987,-87.5587 L 69.6773,-86.8453 L 70.2507,-86.1293 L 70.8147,-85.4107 L 71.3733,-84.6907 L 71.9253,-83.968 L 72.4693,-83.2427 L 73.0067,-82.5147 L 73.5387,-81.7853 L 74.0627,-81.0547 L 74.58,-80.32 L 75.0907,-79.584 L 75.592,-78.8467 L 76.0893,-78.1067 L 76.58,-77.3653 L 77.0627,-76.6213 L 77.54,-75.8747 L 78.0093,-75.1267 L 78.4733,-74.376 L 78.9307,-73.6253 L 79.38,-72.8707 L 79.8253,-72.1147 L 80.2613,-71.3573 L 80.6907,-70.5987 L 81.116,-69.836 L 81.5333,-69.0733 L 81.9453,-68.308 L 82.3493,-67.5413 L 82.7493,-66.7733 L 83.14,-66.004 L 83.5267,-65.2307 L 83.9067,-64.4573 L 84.2787,-63.6827 L 84.6467,-62.9067 L 85.0067,-62.128 L 85.3613,-61.3467 L 85.7093,-60.5667 L 86.0507,-59.7827 L 86.3867,-58.9973 L 86.7173,-58.2133 L 87.04,-57.4253 L 87.3573,-56.6373 L 87.6693,-55.8453 L 87.9733,-55.0533 L 88.2733,-54.2613 L 88.5667,-53.4667 L 88.8547,-52.6707 L 89.1347,-51.8733 L 89.4107,-51.0747 L 89.6813,-50.276 L 89.944,-49.4747 L 90.2027,-48.672 L 90.4547,-47.868 L 90.7013,-47.0653 L 90.9413,-46.2587 L 91.176,-45.452 L 91.4053,-44.644 L 91.628,-43.8347 L 91.8453,-43.0253 L 92.0573,-42.2147 L 92.2627,-41.4027 L 92.4653,-40.5893 L 92.66,-39.776 L 92.848,-38.96 L 93.032,-38.144 L 93.2107,-37.3267 L 93.384,-36.5093 L 93.5507,-35.692 L 93.7133,-34.872 L 93.8693,-34.052 L 94.02,-33.232 L 94.1653,-32.4093 L 94.3053,-31.5867 L 94.4413,-30.764 L 94.5693,-29.94 L 94.6947,-29.1147 L 94.8133,-28.2907 L 94.9267,-27.464 L 95.036,-26.6373 L 95.1387,-25.8107 L 95.2373,-24.9827 L 95.3293,-24.1547 L 95.4173,-23.328 L 95.5,-22.4973 L 95.5787,-21.6693 L 95.6493,-20.8387 L 95.7173,-20.0067 L 95.78,-19.1773 L 95.8373,-18.3453 L 95.8893,-17.5133 L 95.9373,-16.6813 L 95.98,-15.8507 L 96.0173,-15.0173 L 96.0507,-14.1867 L 96.0773,-13.352 L 96.1013,-12.5187 L 96.1187,-11.6853 L 96.132,-10.852 L 96.1413,-10.0187 L 96.144,-9.18533 L 96.144,-8.34933 L 96.1387,-7.516 L 96.128,-6.68267 L 96.1133,-5.848 L 96.092,-5.01333 Z "/>
				</g>
			</g>
			<g id="dp_group014">
				<g id="dp_group015">
					<path id="dp_path016" fill="#1e02ab" fill-rule="evenodd" d="M 197.277,-53.9093 L 197.781,-52.6747 L 198.789,-50.2067 L 203.701,-55.8133 L 196.268,-56.3787 Z "/>
					<path id="dp_path017" fill="#1e02ab" d="M 108.632,22.4213 L 109.192,21.5027 L 109.759,20.5907 L 110.331,19.684 L 110.909,18.7827 L 111.493,17.8853 L 112.083,16.9933 L 112.679,16.104 L 113.28,15.22 L 113.887,14.3413 L 114.499,13.468 L 115.116,12.5973 L 115.739,11.7333 L 116.367,10.8733 L 117,10.0173 L 117.64,9.16667 L 118.283,8.32 L 118.931,7.48 L 119.583,6.644 L 120.243,5.812 L 120.905,4.984 L 121.572,4.16267 L 122.244,3.344 L 122.921,2.532 L 123.601,1.724 L 124.287,0.92 L 124.976,0.121333 L 125.669,-0.672 L 126.368,-1.46133 L 127.069,-2.24533 L 127.775,-3.02533 L 128.485,-3.79867 L 129.199,-4.56933 L 129.917,-5.33467 L 130.636,-6.09467 L 131.361,-6.84933 L 132.089,-7.6 L 132.82,-8.34533 L 133.557,-9.08667 L 134.295,-9.824 L 135.036,-10.5547 L 135.78,-11.2813 L 136.528,-12.0027 L 137.279,-12.7187 L 138.032,-13.4307 L 138.788,-14.1373 L 139.547,-14.84 L 140.308,-15.5373 L 141.073,-16.228 L 141.84,-16.916 L 142.609,-17.5987 L 143.38,-18.276 L 144.155,-18.948 L 144.932,-19.616 L 145.709,-20.2787 L 146.491,-20.936 L 147.272,-21.5893 L 148.057,-22.236 L 148.843,-22.88 L 149.631,-23.5173 L 150.42,-24.1493 L 151.212,-24.7773 L 152.005,-25.4013 L 152.799,-26.0187 L 153.596,-26.632 L 154.392,-27.2387 L 155.191,-27.8427 L 155.989,-28.4413 L 156.789,-29.0333 L 157.592,-29.6213 L 158.393,-30.204 L 159.197,-30.7813 L 160.003,-31.3547 L 160.807,-31.9213 L 161.612,-32.484 L 162.419,-33.0427 L 163.224,-33.5947 L 164.031,-34.1413 L 164.84,-34.684 L 165.647,-35.2227 L 166.455,-35.7533 L 167.261,-36.28 L 168.069,-36.8027 L 168.877,-37.32 L 169.684,-37.832 L 170.492,-38.3373 L 171.3,-38.8387 L 172.107,-39.336 L 172.913,-39.8267 L 173.719,-40.3133 L 174.524,-40.7947 L 175.328,-41.2707 L 176.132,-41.74 L 176.935,-42.2053 L 177.737,-42.6653 L 178.54,-43.12 L 179.34,-43.5707 L 180.139,-44.0147 L 180.936,-44.4547 L 181.733,-44.8893 L 182.528,-45.3173 L 183.321,-45.7413 L 184.113,-46.16 L 184.904,-46.5733 L 185.693,-46.9813 L 186.481,-47.3853 L 187.267,-47.7827 L 188.051,-48.1747 L 188.833,-48.5627 L 189.612,-48.944 L 190.391,-49.32 L 191.165,-49.692 L 191.937,-50.0573 L 192.708,-50.4187 L 193.477,-50.7733 L 194.243,-51.124 L 195.007,-51.468 L 195.768,-51.8093 L 196.525,-52.1427 L 197.276,-52.4693 L 197.781,-52.6747 L 197.277,-53.9093 L 196.759,-53.696 L 195.992,-53.364 L 195.227,-53.0253 L 194.463,-52.684 L 193.693,-52.3373 L 192.923,-51.984 L 192.148,-51.6267 L 191.372,-51.2627 L 190.592,-50.8947 L 189.812,-50.52 L 189.031,-50.1413 L 188.244,-49.7573 L 187.459,-49.3667 L 186.669,-48.972 L 185.879,-48.572 L 185.085,-48.1653 L 184.291,-47.7547 L 183.495,-47.3387 L 182.697,-46.9173 L 181.899,-46.4907 L 181.099,-46.06 L 180.296,-45.6227 L 179.493,-45.18 L 178.689,-44.7333 L 177.884,-44.28 L 177.079,-43.8227 L 176.271,-43.36 L 175.463,-42.892 L 174.653,-42.4173 L 173.844,-41.9387 L 173.033,-41.4547 L 172.223,-40.9653 L 171.411,-40.472 L 170.599,-39.972 L 169.788,-39.468 L 168.975,-38.9573 L 168.163,-38.4427 L 167.349,-37.9227 L 166.536,-37.3973 L 165.724,-36.868 L 164.911,-36.332 L 164.099,-35.7907 L 163.287,-35.2453 L 162.475,-34.696 L 161.664,-34.1387 L 160.852,-33.5773 L 160.041,-33.012 L 159.232,-32.44 L 158.424,-31.864 L 157.615,-31.284 L 156.808,-30.696 L 156,-30.1053 L 155.195,-29.508 L 154.391,-28.9067 L 153.587,-28.3 L 152.785,-27.688 L 151.985,-27.072 L 151.184,-26.4493 L 150.388,-25.8227 L 149.591,-25.192 L 148.796,-24.5547 L 148.003,-23.912 L 147.212,-23.2653 L 146.421,-22.6133 L 145.635,-21.9573 L 144.848,-21.2947 L 144.065,-20.6267 L 143.285,-19.956 L 142.505,-19.2787 L 141.729,-18.596 L 140.955,-17.9107 L 140.183,-17.2173 L 139.412,-16.5213 L 138.645,-15.8187 L 137.881,-15.1133 L 137.12,-14.4013 L 136.361,-13.684 L 135.605,-12.9627 L 134.852,-12.236 L 134.103,-11.504 L 133.356,-10.768 L 132.613,-10.028 L 131.873,-9.28133 L 131.137,-8.53067 L 130.404,-7.77467 L 129.673,-7.01467 L 128.947,-6.24667 L 128.225,-5.476 L 127.507,-4.70267 L 126.791,-3.92133 L 126.08,-3.136 L 125.373,-2.34667 L 124.669,-1.552 L 123.971,-0.750667 L 123.276,0.0533333 L 122.585,0.862667 L 121.9,1.676 L 121.217,2.496 L 120.54,3.32 L 119.868,4.14933 L 119.2,4.98267 L 118.537,5.82 L 117.877,6.664 L 117.224,7.512 L 116.576,8.364 L 115.933,9.22267 L 115.295,10.084 L 114.661,10.952 L 114.033,11.824 L 113.411,12.7 L 112.793,13.5813 L 112.181,14.468 L 111.575,15.36 L 110.973,16.2547 L 110.379,17.1547 L 109.789,18.06 L 109.208,18.9693 L 108.631,19.884 L 108.059,20.804 L 107.493,21.7253 Z "/>
				</g>
			</g>
			<g id="dp_group018">
				<g id="dp_group019">
					<path id="dp_path020" fill="#1e02ab" fill-rule="evenodd" d="M 195.671,16.9147 L 195.385,18.2173 L 194.812,20.8213 L 202.039,18.9973 L 196.244,14.3107 Z "/>
					<path id="dp_path021" fill="#1e02ab" d="M 139.519,23.4253 L 140.251,23.0693 L 140.987,22.7227 L 141.732,22.384 L 142.484,22.0547 L 143.244,21.7307 L 144.013,21.4147 L 144.788,21.1067 L 145.571,20.808 L 146.361,20.516 L 147.161,20.2333 L 147.968,19.9573 L 148.783,19.6907 L 149.607,19.432 L 150.436,19.1813 L 151.273,18.9413 L 152.119,18.708 L 152.972,18.4853 L 153.835,18.2693 L 154.704,18.064 L 155.58,17.868 L 156.465,17.68 L 157.359,17.5013 L 158.259,17.332 L 159.167,17.1747 L 160.081,17.024 L 161.007,16.884 L 161.937,16.7533 L 162.876,16.6333 L 163.824,16.5213 L 164.779,16.4213 L 165.741,16.332 L 166.712,16.2507 L 167.689,16.18 L 168.676,16.1213 L 169.669,16.072 L 170.672,16.0333 L 171.68,16.0053 L 172.699,15.9893 L 173.724,15.984 L 174.757,15.988 L 175.797,16.004 L 176.847,16.0307 L 177.903,16.0693 L 178.965,16.12 L 180.037,16.1813 L 181.117,16.2533 L 182.205,16.3387 L 183.3,16.4333 L 184.403,16.5427 L 185.513,16.6613 L 186.633,16.7947 L 187.759,16.9373 L 188.893,17.0933 L 190.035,17.2627 L 191.183,17.444 L 192.341,17.6373 L 193.505,17.8427 L 194.672,18.0613 L 195.385,18.2173 L 195.671,16.916 L 194.936,16.7547 L 193.743,16.5333 L 192.565,16.3253 L 191.396,16.1293 L 190.235,15.9453 L 189.08,15.776 L 187.932,15.6173 L 186.793,15.472 L 185.663,15.3387 L 184.539,15.2173 L 183.423,15.108 L 182.315,15.0107 L 181.213,14.9253 L 180.12,14.8507 L 179.035,14.7893 L 177.956,14.7387 L 176.887,14.7 L 175.824,14.6733 L 174.771,14.6573 L 173.724,14.6507 L 172.685,14.6587 L 171.653,14.6747 L 170.629,14.7027 L 169.613,14.7413 L 168.604,14.7907 L 167.604,14.852 L 166.611,14.9227 L 165.627,15.004 L 164.648,15.096 L 163.677,15.1987 L 162.716,15.3107 L 161.761,15.4333 L 160.815,15.5667 L 159.876,15.7093 L 158.945,15.86 L 158.021,16.0227 L 157.105,16.1947 L 156.199,16.376 L 155.297,16.5667 L 154.405,16.7653 L 153.52,16.976 L 152.644,17.1947 L 151.775,17.4227 L 150.913,17.6587 L 150.06,17.904 L 149.215,18.16 L 148.377,18.4213 L 147.547,18.6933 L 146.724,18.9747 L 145.911,19.2627 L 145.104,19.56 L 144.305,19.8667 L 143.515,20.18 L 142.732,20.5013 L 141.956,20.8307 L 141.188,21.168 L 140.429,21.5147 L 139.677,21.8667 L 138.937,22.2253 Z "/>
				</g>
			</g>
			<g id="dp_group022">
				<g id="dp_group023">
					<path id="dp_path024" fill="#f3ba00" fill-rule="evenodd" d="M 96.112,-92.612 L 97.4453,-92.612 L 100.112,-92.612 L 96.7787,-99.2787 L 93.4453,-92.612 Z "/>
					<path id="dp_path025" fill="#f3ba00" d="M 97.4453,-5.17733 L 97.4453,-92.612 L 96.112,-92.612 L 96.112,-5.17733 Z "/>
				</g>
			</g>
			<g id="dp_group026">
				<g id="dp_group027">
					<path id="dp_path028" fill="#f3ba00" fill-rule="evenodd" d="M 181.967,5.652 L 182.443,6.89733 L 183.395,9.388 L 188.433,3.89467 L 181.016,3.16 Z "/>
					<path id="dp_path029" fill="#f3ba00" d="M 139.489,23.3093 L 182.443,6.89733 L 181.968,5.652 L 139.015,22.064 Z "/>
				</g>
			</g>
			<g id="dp_group030">
				<g id="dp_group031">
					<path id="dp_path032" fill="black" fill-rule="evenodd" d="M 141.095,-3.58933 L 141.5,-3.05867 L 142.308,-1.99867 L 143.948,-5.34533 L 140.287,-4.64933 Z "/>
					<path id="dp_path033" fill="black" d="M 108.332,22.2267 L 141.5,-3.05867 L 141.095,-3.58933 L 107.927,21.696 Z "/>
				</g>
			</g>
			<g id="dp_group034">
				<g id="dp_group035">
					<path id="dp_path036" fill="black" fill-rule="evenodd" d="M 107.796,-6.40533 L 108.463,-6.40533 L 109.796,-6.40533 L 108.129,-9.73867 L 106.463,-6.40533 Z "/>
					<path id="dp_path037" fill="black" d="M 108.46,21.3653 L 108.463,-6.40533 L 107.796,-6.40533 L 107.793,21.3653 Z "/>
				</g>
			</g>
			<text id="dp_text001" transform="matrix(1,0,0,1,192.183,4.11275)" xml:space="preserve" fill="black" font-family="Arial" font-size="12" font-weight="700" x="0" y="0">F </text>
			<g id="dp_group039">
				<g id="dp_group040">
					<path id="dp_path041" fill="black" fill-rule="evenodd" d="M 65.1453,10.2467 L 65.508,10.8067 L 65.6733,12.288 L 67.2853,9.25867 L 63.8613,9.48933 Z "/>
					<path id="dp_path042" fill="black" d="M 42.0933,25.9627 L 42.372,25.7827 L 43.7147,24.9133 L 43.9933,24.7333 L 43.6307,24.1733 L 43.352,24.3533 L 42.0093,25.2227 L 41.7307,25.4027 Z M 44.7787,24.224 L 45.0573,24.044 L 46.4,23.1747 L 46.6787,22.9947 L 46.316,22.4347 L 46.0373,22.6147 L 44.6947,23.484 L 44.416,23.664 Z M 47.464,22.4853 L 47.7427,22.3053 L 49.0853,21.436 L 49.364,21.256 L 49.0013,20.696 L 48.7227,20.876 L 47.38,21.7453 L 47.1013,21.9253 Z M 50.1493,20.7467 L 50.428,20.5667 L 51.7707,19.6973 L 52.0493,19.5173 L 51.6867,18.9573 L 51.408,19.1373 L 50.0653,20.0067 L 49.7867,20.1867 Z M 52.8347,19.008 L 53.1133,18.828 L 54.456,17.9587 L 54.7347,17.7787 L 54.372,17.2187 L 54.0933,17.3987 L 52.7507,18.268 L 52.472,18.448 Z M 55.52,17.2693 L 55.7987,17.0893 L 57.1413,16.22 L 57.42,16.04 L 57.0573,15.48 L 56.7787,15.66 L 55.436,16.5293 L 55.1573,16.7093 Z M 58.2053,15.5307 L 58.484,15.3507 L 59.828,14.4813 L 60.1067,14.3013 L 59.744,13.7413 L 59.4653,13.9213 L 58.1213,14.7907 L 57.8427,14.9707 Z M 60.892,13.792 L 61.1707,13.612 L 62.5147,12.7427 L 62.7933,12.5627 L 62.4307,12.0027 L 62.152,12.1827 L 60.808,13.052 L 60.5293,13.232 Z M 63.5773,12.0533 L 63.8573,11.8733 L 65.2013,11.0053 L 65.4813,10.8253 L 65.1187,10.2653 L 64.8387,10.4453 L 63.4947,11.3133 L 63.2147,11.4933 Z "/>
				</g>
			</g>
			<text id="dp_text002" transform="matrix(1,0,0,1,24.8301,33.8523)" xml:space="preserve" fill="black" font-family="Arial" font-size="12" font-weight="400" font-style="italic" x="0" y="0">dS</text>
			<text id="dp_text003" transform="matrix(1,0,0,1,24.8301,33.8523)" xml:space="preserve" fill="black" font-family="Arial" font-size="12" font-weight="400" font-style="italic" x="14.136" y="0"> </text>
			<text id="dp_text004" transform="matrix(1,0,0,1,58.2739,-34.7776)" xml:space="preserve" fill="black" font-family="Arial" font-size="12" font-weight="700" x="0" y="0">n </text>
			<text id="dp_text005" transform="matrix(1,0,0,1,144.161,-38.7766)" xml:space="preserve" fill="black" font-family="Arial" font-size="12" font-weight="700" x="0" y="0">F </text>
			<text id="dp_text006" transform="matrix(1,0,0,1,94.3607,-101.738)" xml:space="preserve" fill="black" font-family="Arial" font-size="12" font-weight="700" x="0" y="0">F </text>
			<path id="dp_path048" fill="none" fill-rule="evenodd" stroke="black" stroke-width="0.666667" stroke-dasharray="1.6,1.6" d="M 144.156,-4.86933 L 144.159,-35.9733"/>
			<path id="dp_path049" fill="none" fill-rule="evenodd" stroke="black" stroke-width="0.666667" stroke-dasharray="1.6,1.6" d="M 108.128,-8.66667 L 143.947,-35.9733"/>
			<path id="dp_path050" fill="none" fill-rule="evenodd" stroke="black" stroke-width="0.666667" d="M 68.48,-4.32 L 72.98,-1.42 L 72.98,5.46 L 68.48,2.56 Z "/>
			<g id="dp_group051">
				<g id="dp_group052">
					<path id="dp_path053" fill="#00863c" fill-rule="evenodd" d="M 72.432,-36.7733 L 73.7653,-36.7733 L 76.432,-36.7733 L 73.0987,-43.44 L 69.7653,-36.7733 Z "/>
					<path id="dp_path054" fill="#00863c" d="M 73.7693,6.30533 L 73.7693,5.64 L 73.7653,-36.7733 L 73.7653,-37.4387 L 72.432,-37.4387 L 72.432,-36.7733 L 72.436,5.64 L 72.436,6.30533 Z "/>
				</g>
			</g>
			<path id="dp_path055" fill="none" fill-rule="evenodd" stroke="black" stroke-width="0.666667" d="M 113.867,9.64533 L 108.129,14.06 L 108.129,21.9627 L 113.867,17.548 Z "/>
			<g id="dp_group056">
				<g id="dp_group057">
					<path id="dp_path058" fill="#f3ba00" fill-rule="evenodd" d="M 140.072,-30.664 L 141.204,-29.96 L 143.469,-28.552 L 144.159,-35.9733 L 137.808,-32.0733 Z "/>
					<path id="dp_path059" fill="#f3ba00" d="M 108.696,22.312 L 141.205,-29.96 L 140.072,-30.664 L 107.563,21.608 Z "/>
				</g>
			</g>
			<g id="dp_group060">
				<text id="dp_text007" transform="matrix(1,0,0,1,102.126,-14.8902)" xml:space="preserve" fill="black" font-family="Arial" font-size="10" font-weight="700" x="0" y="0">F </text>
				<path id="dp_path062" fill="none" fill-rule="evenodd" stroke="black" stroke-width="0.844" stroke-linecap="square" d="M 109.119,-17.0973 L 109.119,-12.4333"/>
				<path id="dp_path063" fill="none" fill-rule="evenodd" stroke="black" stroke-width="0.844" stroke-linecap="square" d="M 110.384,-17.0973 L 110.384,-12.4333"/>
			</g>
			<g id="dp_group064">
				<text id="dp_text008" transform="matrix(1,0,0,1,145.515,1.46753)" xml:space="preserve" fill="black" font-family="Arial" font-size="10" font-weight="700" x="0" y="0">F </text>
				<path id="dp_path066" fill="none" fill-rule="evenodd" stroke="black" stroke-width="0.844" stroke-linecap="square" d="M 152.507,-0.74 L 152.507,3.924"/>
				<path id="dp_path067" fill="none" fill-rule="evenodd" stroke="black" stroke-width="0.844" stroke-linecap="square" d="M 150.176,3.92533 L 154.84,3.92533"/>
			</g>
		</g>
		<g id="dp_group068">
			<path id="dp_path069" fill="none" fill-rule="evenodd" stroke="#1e02ab" stroke-width="1.15467" stroke-linejoin="round" stroke-linecap="square" d="M 75.3067,259.364 C 70.8,219.992 75.3933,190.344 93.392,169.292"/>
			<path id="dp_path070" fill="#00b050" fill-rule="evenodd" fill-opacity="0.898039" stroke="none" stroke-width="0.577333" stroke-linejoin="round" stroke-linecap="square" d="M -16.5027,164.58 C 41.7893,134.916 97.7347,135.763 129.771,142.063 C 158.029,154.441 184.288,177.823 209.925,204.624 C 183.276,198.86 121.456,193.368 63.652,227.143 C 37.6107,194.783 10.8467,174.667 -16.5027,164.58 Z "/>
			<path id="dp_path071" fill="#005c2a" fill-rule="evenodd" stroke="none" stroke-width="0.461333" stroke-linejoin="round" stroke-linecap="square" d="M 85.9747,166.627 L 94.6187,165.292 L 100.073,171.311 L 91.4293,172.645 Z "/>
			<path id="dp_path072" fill="none" fill-rule="evenodd" stroke="black" stroke-width="0.577333" stroke-linejoin="round" stroke-linecap="square" d="M 95.212,161.039 L 90.4107,155.48 L 88.812,163.832"/>
			<path id="dp_path073" fill="none" fill-rule="evenodd" stroke="black" stroke-width="0.426667" stroke-linejoin="round" stroke-linecap="square" d="M 115.481,165.173 L 70.7533,172.763"/>
			<path id="dp_path074" fill="none" fill-rule="evenodd" stroke="black" stroke-width="0.577333" stroke-linejoin="round" stroke-linecap="square" d="M 95.2133,161.037 L 103.035,159.809 L 101.604,167.608"/>
			<path id="dp_path075" fill="none" fill-rule="evenodd" stroke="black" stroke-width="0.469333" stroke-linejoin="round" stroke-linecap="square" d="M 108.121,185.137 L 77.732,151.78"/>
			<path id="dp_path076" fill="none" fill-rule="evenodd" stroke="black" stroke-width="0.866667" stroke-linejoin="round" stroke-linecap="square" d="M 102.643,173.332 L 133.06,186.615"/>
			<g id="dp_group077">
				<g id="dp_group078">
					<path id="dp_path079" fill="black" fill-rule="evenodd" d="M 112.353,177.1 L 112.007,177.893 L 111.313,179.481 L 116.148,179.231 L 113.047,175.513 Z "/>
					<path id="dp_path080" fill="black" d="M 92.8227,169.517 L 93.2187,169.689 L 112.007,177.895 L 112.403,178.067 L 112.749,177.272 L 112.353,177.1 L 93.5653,168.895 L 93.1693,168.723 Z "/>
				</g>
			</g>
			<path id="dp_path081" fill="none" fill-rule="evenodd" stroke="black" stroke-width="0.577333" stroke-linejoin="round" stroke-linecap="square" d="M 126.749,183.477 L 127.951,176.644 L 134.16,179.365"/>
			<text id="dp_text009" transform="matrix(1,0,0,1,98.9392,118.181)" xml:space="preserve" fill="black" font-family="Arial" font-size="12" font-weight="700" x="0" y="0">n </text>
			<path id="dp_path083" fill="none" fill-rule="evenodd" stroke="black" stroke-width="0.577333" stroke-linejoin="round" stroke-linecap="square" d="M 27.304,190.071 C 70.9933,169.341 111.961,161.952 170.364,167.825"/>
			<path id="dp_path084" fill="none" fill-rule="evenodd" stroke="black" stroke-width="0.577333" stroke-linejoin="round" stroke-linecap="square" d="M 116.437,206.117 C 101.551,170.889 80.1613,150.836 46.708,143.179"/>
			<g id="dp_group085">
				<g id="dp_group086">
					<path id="dp_path087" fill="black" fill-rule="evenodd" d="M 82.9627,166.343 L 82.8613,166.911 L 82.0933,167.948 L 84.9027,166.977 L 82.5947,165.104 Z "/>
					<path id="dp_path088" fill="black" d="M 49.0853,160.955 L 49.3693,161.004 L 50.7333,161.244 L 51.0173,161.293 L 51.1187,160.725 L 50.8347,160.676 L 49.4707,160.436 L 49.1867,160.387 Z M 51.8133,161.435 L 52.0973,161.484 L 53.4613,161.724 L 53.7453,161.773 L 53.8467,161.205 L 53.5627,161.156 L 52.1987,160.916 L 51.9147,160.867 Z M 54.5413,161.916 L 54.8253,161.965 L 56.1893,162.205 L 56.4733,162.255 L 56.5747,161.687 L 56.2907,161.637 L 54.9267,161.397 L 54.6427,161.348 Z M 57.2693,162.397 L 57.5533,162.447 L 58.9173,162.687 L 59.2013,162.736 L 59.3027,162.168 L 59.0187,162.119 L 57.6547,161.879 L 57.3707,161.829 Z M 59.9973,162.879 L 60.2813,162.928 L 61.6453,163.168 L 61.9293,163.217 L 62.0307,162.649 L 61.7467,162.6 L 60.3827,162.36 L 60.0987,162.311 Z M 62.7253,163.359 L 63.0093,163.408 L 64.3733,163.649 L 64.6573,163.699 L 64.7587,163.131 L 64.4747,163.081 L 63.1107,162.84 L 62.8267,162.791 Z M 65.4533,163.84 L 65.7373,163.889 L 67.1013,164.131 L 67.3853,164.18 L 67.4867,163.612 L 67.2027,163.563 L 65.8387,163.321 L 65.5547,163.272 Z M 68.1813,164.321 L 68.4653,164.371 L 69.8293,164.612 L 70.1133,164.661 L 70.2147,164.093 L 69.9307,164.044 L 68.5667,163.803 L 68.2827,163.753 Z M 70.9093,164.803 L 71.1933,164.852 L 72.5573,165.093 L 72.8413,165.143 L 72.9427,164.575 L 72.6587,164.525 L 71.2947,164.284 L 71.0107,164.235 Z M 73.6373,165.284 L 73.9213,165.333 L 75.2853,165.575 L 75.5693,165.624 L 75.6707,165.056 L 75.3867,165.007 L 74.0227,164.765 L 73.7387,164.716 Z M 76.3653,165.765 L 76.6493,165.815 L 78.0133,166.056 L 78.2973,166.105 L 78.3987,165.537 L 78.1147,165.488 L 76.7507,165.247 L 76.4667,165.197 Z M 79.0933,166.247 L 79.3773,166.296 L 80.7413,166.537 L 81.0253,166.587 L 81.1267,166.019 L 80.8427,165.969 L 79.4787,165.728 L 79.1947,165.679 Z M 81.8227,166.728 L 82.1067,166.777 L 82.8613,166.911 L 83.1453,166.96 L 83.2467,166.392 L 82.9627,166.343 L 82.208,166.209 L 81.924,166.16 Z "/>
				</g>
			</g>
			<text id="dp_text010" transform="matrix(1,0,0,1,31.4781,164.563)" xml:space="preserve" fill="black" font-family="Arial" font-size="12" font-weight="400" font-style="italic" x="0" y="0">dS</text>
			<text id="dp_text011" transform="matrix(1,0,0,1,31.4781,164.563)" xml:space="preserve" fill="black" font-family="Arial" font-size="12" font-weight="400" font-style="italic" x="14.136" y="0"> </text>
			<text id="dp_text012" transform="matrix(1,0,0,1,121.357,126.575)" xml:space="preserve" fill="black" font-family="Arial" font-size="12" font-weight="700" x="0" y="0">F </text>
			<g id="dp_group092">
				<g id="dp_group093">
					<path id="dp_path094" fill="black" fill-rule="evenodd" d="M 117.216,137.119 L 116.776,137.493 L 115.897,138.243 L 118.868,139.504 L 118.095,136.371 Z "/>
					<path id="dp_path095" fill="black" d="M 100.429,130.195 L 100.716,130.225 L 101.079,130.265 L 101.111,129.979 L 101.075,130.265 L 101.435,130.311 L 101.471,130.024 L 101.432,130.311 L 101.792,130.359 L 101.831,130.072 L 101.789,130.357 L 102.145,130.409 L 102.187,130.124 L 102.141,130.409 L 102.496,130.465 L 102.541,130.18 L 102.495,130.465 L 102.848,130.524 L 102.895,130.239 L 102.843,130.523 L 103.193,130.587 L 103.245,130.303 L 103.191,130.587 L 103.54,130.653 L 103.595,130.369 L 103.537,130.652 L 103.884,130.723 L 103.941,130.44 L 103.881,130.723 L 104.225,130.796 L 104.285,130.513 L 104.221,130.795 L 104.564,130.873 L 104.628,130.592 L 104.561,130.873 L 104.901,130.955 L 104.968,130.673 L 104.897,130.953 L 105.236,131.039 L 105.307,130.759 L 105.233,131.037 L 105.569,131.125 L 105.643,130.847 L 105.565,131.125 L 105.899,131.217 L 105.976,130.939 L 105.896,131.216 L 106.227,131.312 L 106.307,131.035 L 106.223,131.311 L 106.552,131.411 L 106.636,131.135 L 106.549,131.411 L 106.876,131.513 L 106.963,131.237 L 106.872,131.512 L 107.196,131.619 L 107.287,131.344 L 107.193,131.617 L 107.515,131.727 L 107.608,131.453 L 107.512,131.725 L 107.832,131.839 L 107.928,131.567 L 107.828,131.837 L 108.144,131.955 L 108.244,131.684 L 108.141,131.953 L 108.456,132.073 L 108.559,131.804 L 108.452,132.072 L 108.763,132.196 L 108.869,131.928 L 108.759,132.195 L 109.068,132.323 L 109.179,132.056 L 109.065,132.321 L 109.372,132.452 L 109.485,132.187 L 109.369,132.451 L 109.673,132.584 L 109.789,132.32 L 109.669,132.583 L 109.969,132.72 L 110.089,132.457 L 109.965,132.719 L 110.264,132.86 L 110.388,132.599 L 110.261,132.859 L 110.557,133.003 L 110.684,132.743 L 110.555,133 L 110.847,133.147 L 110.976,132.889 L 110.843,133.145 L 111.133,133.296 L 111.267,133.04 L 111.129,133.295 L 111.416,133.449 L 111.553,133.195 L 111.413,133.447 L 111.697,133.604 L 111.837,133.352 L 111.695,133.603 L 111.976,133.763 L 112.119,133.512 L 111.972,133.761 L 112.251,133.925 L 112.397,133.676 L 112.248,133.923 L 112.524,134.089 L 112.673,133.843 L 112.52,134.087 L 112.792,134.257 L 112.945,134.013 L 112.789,134.256 L 113.059,134.429 L 113.215,134.187 L 113.056,134.428 L 113.323,134.604 L 113.481,134.363 L 113.319,134.601 L 113.581,134.781 L 113.744,134.543 L 113.579,134.779 L 113.839,134.961 L 114.004,134.725 L 113.835,134.96 L 114.092,135.145 L 114.261,134.911 L 114.088,135.141 L 114.341,135.331 L 114.515,135.1 L 114.339,135.329 L 114.589,135.521 L 114.765,135.292 L 114.587,135.519 L 114.833,135.713 L 115.012,135.487 L 114.829,135.711 L 115.073,135.909 L 115.256,135.685 L 115.071,135.907 L 115.311,136.108 L 115.496,135.887 L 115.308,136.105 L 115.545,136.309 L 115.733,136.091 L 115.543,136.307 L 115.777,136.513 L 115.968,136.297 L 115.773,136.511 L 116.004,136.721 L 116.199,136.508 L 116.001,136.719 L 116.228,136.932 L 116.425,136.721 L 116.224,136.928 L 116.447,137.144 L 116.648,136.937 L 116.444,137.143 L 116.664,137.361 L 116.868,137.156 L 116.648,137.343 L 116.776,137.493 L 116.963,137.713 L 117.403,137.34 L 117.216,137.12 L 117.088,136.969 L 117.08,136.96 L 117.072,136.951 L 116.852,136.732 L 116.851,136.732 L 116.849,136.731 L 116.627,136.515 L 116.625,136.512 L 116.623,136.511 L 116.396,136.297 L 116.395,136.296 L 116.393,136.295 L 116.163,136.084 L 116.161,136.083 L 116.159,136.081 L 115.924,135.875 L 115.923,135.873 L 115.921,135.872 L 115.684,135.668 L 115.683,135.667 L 115.681,135.665 L 115.441,135.464 L 115.44,135.463 L 115.439,135.461 L 115.195,135.263 L 115.192,135.261 L 115.191,135.26 L 114.944,135.065 L 114.943,135.064 L 114.941,135.063 L 114.691,134.871 L 114.689,134.869 L 114.688,134.869 L 114.435,134.68 L 114.432,134.677 L 114.431,134.676 L 114.173,134.491 L 114.172,134.491 L 114.169,134.489 L 113.909,134.307 L 113.908,134.305 L 113.907,134.304 L 113.644,134.124 L 113.643,134.123 L 113.64,134.121 L 113.373,133.945 L 113.372,133.945 L 113.371,133.944 L 113.101,133.771 L 113.1,133.769 L 113.099,133.769 L 112.827,133.599 L 112.825,133.597 L 112.823,133.596 L 112.547,133.429 L 112.545,133.428 L 112.544,133.427 L 112.265,133.263 L 112.263,133.263 L 112.261,133.261 L 111.98,133.101 L 111.979,133.1 L 111.977,133.1 L 111.693,132.943 L 111.692,132.941 L 111.691,132.94 L 111.404,132.785 L 111.401,132.785 L 111.4,132.784 L 111.109,132.633 L 111.107,132.632 L 111.105,132.632 L 110.813,132.485 L 110.812,132.484 L 110.811,132.483 L 110.515,132.339 L 110.513,132.339 L 110.512,132.337 L 110.213,132.196 L 110.211,132.196 L 110.209,132.195 L 109.909,132.057 L 109.908,132.056 L 109.905,132.056 L 109.601,131.923 L 109.6,131.921 L 109.599,131.921 L 109.292,131.791 L 109.291,131.789 L 109.289,131.789 L 108.98,131.661 L 108.979,131.66 L 108.976,131.66 L 108.665,131.536 L 108.664,131.535 L 108.661,131.535 L 108.347,131.415 L 108.345,131.413 L 108.344,131.413 L 108.028,131.296 L 108.027,131.295 L 108.024,131.295 L 107.704,131.181 L 107.703,131.18 L 107.701,131.18 L 107.38,131.071 L 107.379,131.071 L 107.377,131.069 L 107.053,130.963 L 107.051,130.963 L 107.049,130.961 L 106.723,130.859 L 106.721,130.859 L 106.72,130.859 L 106.391,130.759 L 106.389,130.757 L 106.387,130.757 L 106.056,130.661 L 106.055,130.661 L 106.053,130.66 L 105.72,130.568 L 105.717,130.568 L 105.716,130.568 L 105.38,130.48 L 105.379,130.479 L 105.377,130.479 L 105.039,130.393 L 105.037,130.393 L 105.035,130.392 L 104.695,130.311 L 104.693,130.311 L 104.692,130.311 L 104.349,130.232 L 104.348,130.232 L 104.345,130.231 L 104.001,130.157 L 104,130.157 L 103.999,130.157 L 103.652,130.087 L 103.651,130.087 L 103.649,130.085 L 103.3,130.019 L 103.299,130.019 L 103.297,130.019 L 102.947,129.955 L 102.944,129.955 L 102.941,129.953 L 102.588,129.895 L 102.587,129.895 L 102.232,129.839 L 102.231,129.839 L 102.228,129.839 L 101.872,129.787 L 101.871,129.787 L 101.869,129.785 L 101.509,129.737 L 101.508,129.737 L 101.507,129.737 L 101.147,129.692 L 101.144,129.692 L 101.143,129.692 L 100.78,129.652 L 100.493,129.621 Z "/>
				</g>
			</g>
			<g id="dp_group096">
				<text id="dp_text013" transform="matrix(1,0,0,1,144.264,148.928)" xml:space="preserve" fill="black" font-family="Arial" font-size="10" font-weight="700" x="0" y="0">F </text>
				<path id="dp_path098" fill="none" fill-rule="evenodd" stroke="black" stroke-width="0.844" stroke-linecap="square" d="M 151.256,146.721 L 151.256,151.385"/>
				<path id="dp_path099" fill="none" fill-rule="evenodd" stroke="black" stroke-width="0.844" stroke-linecap="square" d="M 152.521,146.721 L 152.521,151.385"/>
			</g>
			<g id="dp_group100">
				<text id="dp_text014" transform="matrix(1,0,0,1,112.235,188.97)" xml:space="preserve" fill="black" font-family="Arial" font-size="10" font-weight="700" x="0" y="0">F </text>
				<path id="dp_path102" fill="none" fill-rule="evenodd" stroke="black" stroke-width="0.844" stroke-linecap="square" d="M 119.227,186.763 L 119.227,191.427"/>
				<path id="dp_path103" fill="none" fill-rule="evenodd" stroke="black" stroke-width="0.844" stroke-linecap="square" d="M 116.896,191.428 L 121.56,191.428"/>
			</g>
			<g id="dp_group104">
				<g id="dp_group105">
					<path id="dp_path106" fill="#005c2a" fill-rule="evenodd" d="M 100.548,126.577 L 101.684,126.783 L 103.956,127.195 L 102.145,120.999 L 98.2747,126.165 Z "/>
					<path id="dp_path107" fill="#005c2a" d="M 93.8573,169.961 L 93.96,169.393 L 101.684,126.783 L 101.787,126.215 L 100.651,126.009 L 100.548,126.577 L 92.824,169.188 L 92.7213,169.756 Z "/>
				</g>
			</g>
			<g id="dp_group108">
				<g id="dp_group109">
					<path id="dp_path110" fill="#1e02ab" fill-rule="evenodd" d="M 192.223,113.885 L 192.588,114.981 L 193.316,117.172 L 197.884,112.611 L 191.495,111.693 Z "/>
					<path id="dp_path111" fill="#1e02ab" d="M 93.4533,170.105 L 93.8293,169.668 L 94.388,169.019 L 93.9507,168.643 L 94.384,169.024 L 94.9493,168.38 L 94.516,167.999 L 94.9467,168.383 L 95.516,167.744 L 95.0853,167.36 L 95.5133,167.748 L 96.088,167.113 L 95.66,166.725 L 96.0853,167.116 L 96.6653,166.485 L 96.24,166.095 L 96.6613,166.489 L 97.2467,165.864 L 96.8253,165.469 L 97.244,165.867 L 97.8333,165.245 L 97.4147,164.848 L 97.8307,165.249 L 98.4253,164.633 L 98.0093,164.232 L 98.4213,164.636 L 99.0213,164.024 L 98.6093,163.62 L 99.0187,164.028 L 99.624,163.42 L 99.2147,163.012 L 99.6213,163.423 L 100.231,162.82 L 99.824,162.409 L 100.227,162.823 L 100.841,162.224 L 100.439,161.811 L 100.839,162.228 L 101.459,161.633 L 101.059,161.216 L 101.455,161.636 L 102.08,161.045 L 101.684,160.625 L 102.077,161.048 L 102.707,160.463 L 102.313,160.04 L 102.704,160.465 L 103.337,159.884 L 102.947,159.459 L 103.333,159.888 L 103.973,159.311 L 103.587,158.881 L 103.971,159.312 L 104.613,158.739 L 104.229,158.308 L 104.611,158.743 L 105.26,158.173 L 104.879,157.739 L 105.256,158.175 L 105.909,157.609 L 105.532,157.173 L 105.907,157.612 L 106.564,157.051 L 106.189,156.612 L 106.561,157.053 L 107.224,156.496 L 106.852,156.055 L 107.221,156.499 L 107.888,155.945 L 107.519,155.501 L 107.884,155.949 L 108.556,155.401 L 108.191,154.953 L 108.553,155.403 L 109.229,154.857 L 108.867,154.408 L 109.227,154.86 L 109.907,154.319 L 109.547,153.867 L 109.903,154.321 L 110.588,153.784 L 110.232,153.329 L 110.585,153.785 L 111.276,153.251 L 110.923,152.795 L 111.273,153.253 L 111.967,152.724 L 111.616,152.265 L 111.964,152.727 L 112.663,152.2 L 112.315,151.739 L 112.659,152.203 L 113.363,151.68 L 113.019,151.216 L 113.36,151.681 L 114.067,151.163 L 113.725,150.697 L 114.064,151.165 L 114.776,150.651 L 114.437,150.183 L 114.773,150.652 L 115.489,150.14 L 115.153,149.671 L 115.487,150.143 L 116.207,149.635 L 115.873,149.163 L 116.203,149.637 L 116.928,149.133 L 116.599,148.659 L 116.927,149.135 L 117.655,148.633 L 117.327,148.157 L 117.651,148.635 L 118.384,148.137 L 118.06,147.66 L 118.381,148.14 L 119.119,147.645 L 118.797,147.165 L 119.116,147.647 L 119.857,147.156 L 119.539,146.675 L 119.855,147.157 L 120.6,146.669 L 120.284,146.187 L 120.597,146.672 L 121.348,146.188 L 121.035,145.703 L 121.345,146.189 L 122.099,145.709 L 121.788,145.223 L 122.096,145.711 L 122.853,145.232 L 122.545,144.744 L 122.849,145.235 L 123.612,144.761 L 123.308,144.271 L 123.611,144.763 L 124.376,144.291 L 124.073,143.799 L 124.373,144.292 L 125.143,143.824 L 124.843,143.331 L 125.14,143.825 L 125.913,143.36 L 125.616,142.865 L 125.911,143.363 L 126.689,142.901 L 126.395,142.404 L 126.687,142.901 L 127.468,142.443 L 127.176,141.945 L 127.465,142.445 L 128.251,141.989 L 127.961,141.489 L 128.249,141.991 L 129.039,141.537 L 128.751,141.036 L 129.036,141.539 L 129.828,141.089 L 129.543,140.587 L 129.825,141.091 L 130.623,140.643 L 130.34,140.139 L 130.62,140.644 L 131.42,140.2 L 131.14,139.695 L 131.417,140.201 L 132.223,139.76 L 131.945,139.253 L 132.221,139.761 L 133.029,139.323 L 132.753,138.815 L 133.027,139.323 L 133.837,138.887 L 133.564,138.379 L 133.835,138.888 L 134.651,138.455 L 134.38,137.945 L 134.649,138.456 L 135.468,138.025 L 135.199,137.515 L 135.464,138.027 L 136.287,137.6 L 136.021,137.088 L 136.285,137.601 L 137.111,137.176 L 136.847,136.663 L 137.109,137.177 L 137.939,136.755 L 137.676,136.24 L 137.936,136.756 L 138.769,136.336 L 138.509,135.82 L 138.768,136.336 L 139.605,135.917 L 139.347,135.401 L 139.603,135.919 L 140.443,135.504 L 140.187,134.987 L 140.44,135.505 L 141.283,135.093 L 141.029,134.575 L 141.281,135.095 L 142.128,134.684 L 141.876,134.164 L 142.125,134.684 L 142.976,134.276 L 142.727,133.756 L 142.975,134.277 L 143.828,133.872 L 143.58,133.351 L 143.827,133.873 L 144.684,133.469 L 144.437,132.947 L 144.681,133.469 L 145.541,133.068 L 145.297,132.545 L 145.54,133.069 L 146.403,132.671 L 146.16,132.147 L 146.4,132.672 L 147.267,132.276 L 147.027,131.751 L 147.265,132.276 L 148.136,131.881 L 147.897,131.356 L 148.135,131.883 L 149.007,131.491 L 148.769,130.964 L 149.004,131.492 L 149.881,131.101 L 149.647,130.573 L 149.88,131.101 L 150.759,130.713 L 150.525,130.185 L 150.757,130.715 L 151.64,130.328 L 151.408,129.799 L 151.637,130.328 L 152.523,129.944 L 152.293,129.415 L 152.521,129.945 L 154.301,129.183 L 154.073,128.652 L 154.297,129.184 L 156.089,128.429 L 155.865,127.897 L 156.087,128.431 L 157.891,127.683 L 157.669,127.149 L 157.888,127.684 L 159.704,126.943 L 159.485,126.408 L 159.701,126.944 L 161.528,126.209 L 161.312,125.673 L 161.525,126.211 L 163.363,125.483 L 163.149,124.945 L 163.359,125.483 L 165.208,124.761 L 164.999,124.224 L 165.207,124.763 L 167.065,124.047 L 166.857,123.508 L 167.063,124.048 L 168.933,123.337 L 168.728,122.797 L 168.931,123.337 L 170.811,122.632 L 170.608,122.092 L 170.808,122.633 L 172.697,121.933 L 172.497,121.392 L 172.696,121.935 L 174.596,121.239 L 174.397,120.696 L 174.593,121.239 L 176.504,120.548 L 176.308,120.005 L 176.503,120.549 L 178.421,119.861 L 178.227,119.317 L 178.42,119.861 L 180.348,119.179 L 180.155,118.635 L 180.345,119.18 L 182.283,118.5 L 182.092,117.955 L 182.281,118.5 L 184.227,117.824 L 184.037,117.279 L 184.225,117.824 L 186.18,117.151 L 185.992,116.605 L 186.179,117.152 L 188.141,116.481 L 187.955,115.935 L 188.14,116.481 L 190.111,115.813 L 189.925,115.267 L 190.109,115.813 L 192.088,115.147 L 191.904,114.6 L 192.087,115.148 L 192.588,114.981 L 193.135,114.8 L 192.769,113.704 L 192.223,113.885 L 191.721,114.052 L 191.72,114.053 L 189.741,114.72 L 189.74,114.72 L 187.769,115.388 L 187.768,115.388 L 185.805,116.059 L 185.804,116.059 L 185.804,116.06 L 183.849,116.733 L 183.848,116.733 L 181.903,117.409 L 181.901,117.409 L 179.964,118.089 L 179.963,118.091 L 179.961,118.091 L 178.033,118.773 L 178.032,118.773 L 176.113,119.461 L 176.112,119.463 L 174.201,120.153 L 174.2,120.153 L 174.199,120.153 L 172.299,120.849 L 172.297,120.851 L 170.408,121.551 L 170.407,121.551 L 170.405,121.552 L 168.525,122.257 L 168.524,122.257 L 168.523,122.257 L 166.652,122.968 L 166.651,122.969 L 166.649,122.969 L 164.791,123.685 L 164.789,123.685 L 164.789,123.687 L 162.94,124.408 L 162.939,124.408 L 162.936,124.408 L 161.099,125.136 L 161.097,125.137 L 161.096,125.137 L 159.269,125.872 L 159.268,125.873 L 159.267,125.873 L 157.451,126.615 L 157.449,126.616 L 157.448,126.616 L 155.644,127.364 L 155.643,127.364 L 155.641,127.365 L 153.849,128.12 L 153.848,128.12 L 153.845,128.121 L 152.065,128.884 L 152.064,128.885 L 151.179,129.269 L 151.177,129.269 L 151.176,129.269 L 150.293,129.656 L 150.293,129.657 L 150.292,129.657 L 149.413,130.045 L 149.412,130.045 L 148.535,130.436 L 148.533,130.437 L 148.532,130.437 L 147.66,130.829 L 147.659,130.831 L 146.788,131.225 L 146.787,131.225 L 145.92,131.621 L 145.919,131.621 L 145.917,131.623 L 145.055,132.021 L 145.053,132.023 L 144.193,132.424 L 144.192,132.424 L 144.191,132.424 L 143.333,132.828 L 143.333,132.829 L 143.332,132.829 L 142.479,133.235 L 142.477,133.235 L 142.477,133.236 L 141.627,133.644 L 141.625,133.644 L 141.624,133.644 L 140.777,134.055 L 140.776,134.056 L 139.933,134.468 L 139.932,134.468 L 139.931,134.469 L 139.091,134.884 L 139.089,134.884 L 139.088,134.885 L 138.251,135.304 L 138.249,135.304 L 137.416,135.724 L 137.415,135.725 L 137.413,135.725 L 136.584,136.148 L 136.583,136.149 L 135.757,136.575 L 135.756,136.575 L 135.756,136.576 L 134.933,137.003 L 134.931,137.003 L 134.929,137.004 L 134.111,137.435 L 134.109,137.436 L 133.293,137.869 L 133.292,137.869 L 133.291,137.871 L 132.48,138.307 L 132.479,138.307 L 132.477,138.307 L 131.669,138.745 L 131.669,138.747 L 131.668,138.747 L 130.863,139.188 L 130.861,139.189 L 130.86,139.189 L 130.06,139.633 L 130.059,139.635 L 130.057,139.635 L 129.26,140.083 L 129.259,140.084 L 129.257,140.084 L 128.465,140.533 L 128.464,140.535 L 128.463,140.535 L 127.673,140.988 L 127.672,140.989 L 126.887,141.445 L 126.885,141.447 L 126.884,141.448 L 126.103,141.907 L 126.101,141.907 L 126.1,141.907 L 125.321,142.368 L 125.32,142.369 L 125.319,142.371 L 124.545,142.836 L 124.544,142.836 L 124.543,142.837 L 123.773,143.305 L 123.772,143.307 L 123.771,143.307 L 123.005,143.779 L 123.004,143.78 L 122.241,144.253 L 122.239,144.255 L 122.237,144.256 L 121.48,144.735 L 121.479,144.735 L 121.477,144.736 L 120.724,145.216 L 120.723,145.216 L 120.721,145.217 L 119.971,145.701 L 119.969,145.703 L 119.968,145.704 L 119.223,146.192 L 119.221,146.192 L 119.22,146.193 L 118.479,146.684 L 118.477,146.685 L 118.476,146.685 L 117.739,147.18 L 117.737,147.181 L 117.736,147.183 L 117.003,147.68 L 117.001,147.68 L 116.999,147.681 L 116.271,148.183 L 116.271,148.184 L 116.269,148.184 L 115.544,148.688 L 115.543,148.689 L 115.54,148.691 L 114.82,149.199 L 114.819,149.2 L 114.817,149.201 L 114.101,149.713 L 114.1,149.713 L 114.099,149.715 L 113.387,150.229 L 113.385,150.231 L 113.384,150.232 L 112.677,150.751 L 112.676,150.752 L 112.675,150.752 L 111.971,151.275 L 111.969,151.276 L 111.967,151.277 L 111.268,151.804 L 111.267,151.805 L 111.265,151.807 L 110.572,152.336 L 110.571,152.337 L 110.569,152.339 L 109.879,152.873 L 109.877,152.873 L 109.876,152.875 L 109.191,153.412 L 109.189,153.413 L 109.187,153.415 L 108.507,153.956 L 108.505,153.957 L 108.504,153.959 L 107.828,154.504 L 107.827,154.505 L 107.825,154.505 L 107.153,155.053 L 107.152,155.056 L 107.149,155.057 L 106.483,155.611 L 106.481,155.612 L 106.48,155.613 L 105.817,156.171 L 105.816,156.172 L 105.815,156.173 L 105.157,156.735 L 105.156,156.736 L 105.155,156.737 L 104.501,157.303 L 104.5,157.303 L 104.497,157.304 L 103.848,157.873 L 103.847,157.876 L 103.845,157.877 L 103.203,158.451 L 103.201,158.452 L 103.2,158.452 L 102.56,159.029 L 102.559,159.032 L 102.556,159.033 L 101.923,159.615 L 101.921,159.616 L 101.92,159.617 L 101.291,160.203 L 101.289,160.204 L 101.288,160.205 L 100.663,160.796 L 100.66,160.797 L 100.659,160.799 L 100.039,161.393 L 100.037,161.396 L 100.036,161.397 L 99.4213,161.996 L 99.42,161.997 L 99.4173,161.999 L 98.808,162.601 L 98.8067,162.603 L 98.8053,162.604 L 98.2,163.212 L 98.1987,163.215 L 98.1973,163.216 L 97.5973,163.828 L 97.596,163.829 L 97.5933,163.831 L 96.9987,164.447 L 96.9973,164.449 L 96.996,164.451 L 96.4067,165.072 L 96.4053,165.073 L 96.404,165.075 L 95.8187,165.7 L 95.8173,165.701 L 95.8147,165.704 L 95.2347,166.335 L 95.2333,166.336 L 95.232,166.337 L 94.6573,166.972 L 94.656,166.975 L 94.6547,166.976 L 94.0853,167.615 L 94.084,167.616 L 94.0827,167.617 L 93.5173,168.261 L 93.5147,168.264 L 93.5133,168.267 L 92.9547,168.916 L 92.5787,169.353 Z "/>
				</g>
			</g>
			<path id="dp_path112" fill="none" fill-rule="evenodd" stroke="black" stroke-width="0.866667" stroke-linejoin="round" stroke-linecap="square" d="M 138.753,155.353 L 147.675,106.133"/>
			<g id="dp_group113">
				<g id="dp_group114">
					<path id="dp_path115" fill="black" fill-rule="evenodd" d="M 139.319,149.8 L 140.171,149.955 L 141.876,150.263 L 140.517,145.616 L 137.615,149.491 Z "/>
					<path id="dp_path116" fill="black" d="M 133.453,187.025 L 133.529,186.6 L 140.172,149.955 L 140.248,149.529 L 139.395,149.375 L 139.319,149.8 L 132.676,186.445 L 132.6,186.871 Z "/>
				</g>
			</g>
			<path id="dp_path117" fill="black" fill-rule="evenodd" d="M 111.463,130.444 C 111.78,130.436 112.1,130.329 112.419,130.12 C 112.731,129.921 113.027,129.653 113.308,129.316 C 113.881,128.612 114.328,127.804 114.644,126.891 C 114.797,126.44 114.907,126.003 114.972,125.58 C 115.027,125.157 115.024,124.777 114.965,124.437 C 114.913,124.099 114.8,123.828 114.627,123.625 C 114.445,123.425 114.197,123.325 113.881,123.325 C 113.573,123.325 113.264,123.425 112.952,123.625 C 112.64,123.828 112.34,124.099 112.052,124.437 C 111.461,125.152 111.009,125.969 110.697,126.891 C 110.387,127.804 110.285,128.612 110.395,129.316 C 110.453,129.653 110.571,129.921 110.745,130.12 C 110.919,130.329 111.156,130.436 111.463,130.444 Z M 113.639,126.9 L 113.425,127.524 C 113.153,128.328 112.861,128.969 112.552,129.444 C 112.225,129.937 111.892,130.187 111.548,130.195 C 111.221,130.187 111.064,129.937 111.079,129.444 C 111.076,128.969 111.211,128.328 111.484,127.524 L 111.696,126.9 Z M 111.831,126.504 L 112.087,125.752 C 112.283,125.175 112.529,124.675 112.828,124.251 C 112.98,124.044 113.14,123.879 113.303,123.753 C 113.465,123.635 113.629,123.575 113.797,123.575 C 113.977,123.575 114.109,123.635 114.191,123.753 C 114.269,123.879 114.313,124.044 114.327,124.251 C 114.324,124.675 114.224,125.175 114.028,125.752 L 113.772,126.504 Z "/>
			<g id="dp_group118">
				<g id="dp_group119">
					<path id="dp_path120" fill="#f3ba00" fill-rule="evenodd" d="M 124.252,132.54 L 125.127,133.293 L 126.877,134.8 L 128.455,128.54 L 122.5,131.035 Z "/>
					<path id="dp_path121" fill="#f3ba00" d="M 93.4533,170.104 L 93.8293,169.667 L 125.127,133.293 L 125.503,132.856 L 124.628,132.104 L 124.252,132.541 L 92.9547,168.915 L 92.5787,169.352 Z "/>
				</g>
			</g>
			<path id="dp_path122" fill="none" fill-rule="evenodd" stroke="#f3ba00" stroke-width="0.988" stroke-linejoin="round" stroke-linecap="square" d="M 116.191,142.676 L 147.676,106.133"/>
		</g>
	</g>
</svg>